<?xml version="1.0" encoding="UTF-8"?>
<svg width="24px" height="20px" viewBox="0 0 24 20" version="1.1" xmlns="http://www.w3.org/2000/svg" xmlns:xlink="http://www.w3.org/1999/xlink">
    <!-- Generator: Sketch 43.2 (39069) - http://www.bohemiancoding.com/sketch -->
    <title>Fill 149 + Fill 150 + Fill 151</title>
    <desc>Created with Sketch.</desc>
    <defs></defs>
    <g id="Page-1" stroke="none" stroke-width="1" fill="none" fill-rule="evenodd">
        <g id="4-newslatter-open" transform="translate(-906.000000, -1162.000000)" fill="#C5C5C5">
            <g id="Toggle" transform="translate(510.000000, 752.000000)">
                <g id="game-right" transform="translate(20.000000, 170.000000)">
                    <g id="btn-right" transform="translate(0.000000, 225.000000)">
                        <g id="Fill-149-+-Fill-150-+-Fill-151" transform="translate(376.000000, 15.000000)">
                            <path d="M2,16.5 L2,8 L0.5,8 C0.224,8 0,8.224 0,8.5 L0,19.5 C0,19.777 0.224,20 0.5,20 L17.5,20 C17.776,20 18,19.777 18,19.5 L18,17 L2.5,17 C2.224,17 2,16.777 2,16.5" id="Fill-149"></path>
                            <path d="M5,12.5 L5,4 L3.5,4 C3.224,4 3,4.224 3,4.5 L3,15.5 L3,16 L3.5,16 L20.5,16 C20.776,16 21,15.777 21,15.5 L21,13 L5.5,13 C5.224,13 5,12.777 5,12.5" id="Fill-150"></path>
                            <path d="M23.5,0 L6.5,0 C6.224,0 6,0.224 6,0.5 L6,11.5 L6,12 L6.5,12 L23.5,12 C23.776,12 24,11.777 24,11.5 L24,0.5 C24,0.224 23.776,0 23.5,0" id="Fill-151"></path>
                        </g>
                    </g>
                </g>
            </g>
        </g>
    </g>
</svg>