<?xml version="1.0" encoding="utf-8"?>
<!-- Generator: Adobe Illustrator 17.0.0, SVG Export Plug-In . SVG Version: 6.00 Build 0)  -->
<!DOCTYPE svg PUBLIC "-//W3C//DTD SVG 1.1//EN" "http://www.w3.org/Graphics/SVG/1.1/DTD/svg11.dtd">
<svg version="1.1" id="圖層_1" xmlns="http://www.w3.org/2000/svg" xmlns:xlink="http://www.w3.org/1999/xlink" x="0px" y="0px"
	 width="470px" height="328px" viewBox="-30 242.5 470 328" enable-background="new -30 242.5 470 328" xml:space="preserve">
<rect x="-30" y="242.5" fill="#A52B2B" width="470" height="328"/>
<g id="圖層_2_1_">
	<g>
		
			<linearGradient id="SVGID_1_" gradientUnits="userSpaceOnUse" x1="127.5176" y1="-274.9016" x2="127.5176" y2="-341.3851" gradientTransform="matrix(1 0 0 -1 -66 75)">
			<stop  offset="0" style="stop-color:#FFFFFF"/>
			<stop  offset="0.1851" style="stop-color:#FCFCFC"/>
			<stop  offset="0.3371" style="stop-color:#F2F2F2"/>
			<stop  offset="0.4773" style="stop-color:#E0E0E0"/>
			<stop  offset="0.6105" style="stop-color:#C8C8C8"/>
			<stop  offset="0.7388" style="stop-color:#A9A9A9"/>
			<stop  offset="0.8633" style="stop-color:#838383"/>
			<stop  offset="0.9826" style="stop-color:#565656"/>
			<stop  offset="1" style="stop-color:#4F4F4F"/>
		</linearGradient>
		<path fill="url(#SVGID_1_)" d="M53.602,350.013l0.673,66.372c0,0,1.586-20.964,15.143-31.162v-18.641
			C69.418,366.583,70.548,348.318,53.602,350.013z"/>
		
			<linearGradient id="SVGID_2_" gradientUnits="userSpaceOnUse" x1="229.1946" y1="-274.9016" x2="229.1946" y2="-329.429" gradientTransform="matrix(1 0 0 -1 -66 75)">
			<stop  offset="0" style="stop-color:#FFFFFF"/>
			<stop  offset="0.1851" style="stop-color:#FCFCFC"/>
			<stop  offset="0.3371" style="stop-color:#F2F2F2"/>
			<stop  offset="0.4773" style="stop-color:#E0E0E0"/>
			<stop  offset="0.6105" style="stop-color:#C8C8C8"/>
			<stop  offset="0.7388" style="stop-color:#A9A9A9"/>
			<stop  offset="0.8633" style="stop-color:#838383"/>
			<stop  offset="0.9826" style="stop-color:#565656"/>
			<stop  offset="1" style="stop-color:#4F4F4F"/>
		</linearGradient>
		<path fill="url(#SVGID_2_)" d="M155.279,350.013v54.416c0,0,5.129-8.2,15.816-18.076v-19.771
			C171.095,366.583,172.225,348.318,155.279,350.013z"/>
		
			<linearGradient id="SVGID_3_" gradientUnits="userSpaceOnUse" x1="267.2964" y1="-299.7146" x2="267.2964" y2="-362.0289" gradientTransform="matrix(1 0 0 -1 -66 75)">
			<stop  offset="0" style="stop-color:#FFFFFF"/>
			<stop  offset="0.1851" style="stop-color:#FCFCFC"/>
			<stop  offset="0.3371" style="stop-color:#F2F2F2"/>
			<stop  offset="0.4773" style="stop-color:#E0E0E0"/>
			<stop  offset="0.6105" style="stop-color:#C8C8C8"/>
			<stop  offset="0.7388" style="stop-color:#A9A9A9"/>
			<stop  offset="0.8633" style="stop-color:#838383"/>
			<stop  offset="0.9826" style="stop-color:#565656"/>
			<stop  offset="1" style="stop-color:#4F4F4F"/>
		</linearGradient>
		<path fill="url(#SVGID_3_)" d="M155.279,404.429c0,0,6.072,5.178,20.335-0.754c0,0,6.112-3.985,11.486-8.284
			c0,0,6.182-5.028,14.279-5.406c0,0,17.166-1.185,26.016,14.444c0,0,4.708,7.72,2.824,19.394c0,0-2.119,9.925-5.837,13.206
			l22.932-20.192c0,0,0.417-20.88-14.835-31.801c0,0-13.515-12.122-35.032-10.092c-3.497,0.33-14.488,2.223-26.35,11.41
			C171.095,386.353,159.656,395.061,155.279,404.429z"/>
		<path fill="#FFFFFF" d="M284.258,358.807c0,4.918-9.509,13.424-9.509,13.424s-9.509-8.506-9.509-13.424s4.257-8.905,9.509-8.905
			S284.258,353.889,284.258,358.807z"/>
		<path fill="#FFFFFF" d="M82.48,376.42c0,0-36.187,13.627-26.584,54.863c0,0,11.279,42.024,57.788,29.221
			c0,0,13.36-4.501,21.833-15.233c0,0,8.469-9.406,12.046-11.477c0,0-14.124-5.079-24.103,0.946c0,0-4.896,2.827-7.909,6.216
			c0,0-11.11,9.039-25.984,3.39c0,0-23.725-7.72-17.324-35.398c0,0,5.649-18.452,29.562-18.263c0,0,10.168,0,18.446,9.606
			c0,0,40.112,40.48,46.514,45.564c0,0,10.356,9.603,15.252,12.051c0,0,8.742,5.423,23.294,5.065c0,0,15.117,1.149,27.733-11.278
			l39.163-35.399c0,0,22.406-21.089,25.419-22.219c0,0,7.908-5.931,21.042-2.401c0,0,14.617,3.53,19.841,18.358
			c0,0,0.917,3.107,0.917,6.072v34.457c0,0,3.389,13.857,16.946,12.436v-47.082c0,0,0.282-3.765-0.999-7.914
			c-2.418-7.829-9.991-24.039-25.409-29.461c0,0-16.594-8.332-36.234-0.456c0,0-8.567,4.552-13.086,9.494l-40.088,35.163
			l-21.597,19.064c0,0-6.068,4.237-11.434,4.66c0,0-11.436,1.977-23.299-7.343l-41.093-39.4c0,0-14.545-14.969-20.9-18.923
			C122.234,380.798,104.722,368.653,82.48,376.42z"/>
		<g>
			
				<linearGradient id="SVGID_4_" gradientUnits="userSpaceOnUse" x1="340.888" y1="-303.2562" x2="340.888" y2="-324.4367" gradientTransform="matrix(1 0 0 -1 -66 75)">
				<stop  offset="0" style="stop-color:#FFFFFF"/>
				<stop  offset="0.2544" style="stop-color:#FCFCFC;stop-opacity:0.8982"/>
				<stop  offset="0.4079" style="stop-color:#F4F4F4;stop-opacity:0.8369"/>
				<stop  offset="0.5346" style="stop-color:#E6E6E6;stop-opacity:0.7862"/>
				<stop  offset="0.6467" style="stop-color:#D1D1D1;stop-opacity:0.7413"/>
				<stop  offset="0.7492" style="stop-color:#B7B7B7;stop-opacity:0.7003"/>
				<stop  offset="0.8447" style="stop-color:#979797;stop-opacity:0.6621"/>
				<stop  offset="0.933" style="stop-color:#717171;stop-opacity:0.6268"/>
				<stop  offset="1" style="stop-color:#4F4F4F;stop-opacity:0.6"/>
			</linearGradient>
			<path fill="url(#SVGID_4_)" d="M280.645,387.577c0.606-0.662,1.287-1.316,2.008-1.954c-1.018-1.769-5.06-7.366-15.529-7.366
				v21.18L280.645,387.577z"/>
			
				<linearGradient id="SVGID_5_" gradientUnits="userSpaceOnUse" x1="341.0315" y1="-388.0388" x2="341.0315" y2="-331.3745" gradientTransform="matrix(1 0 0 -1 -66 75)">
				<stop  offset="0" style="stop-color:#FFFFFF"/>
				<stop  offset="0.2959" style="stop-color:#FDFDFD;stop-opacity:0.9405"/>
				<stop  offset="0.4559" style="stop-color:#F5F5F5;stop-opacity:0.9083"/>
				<stop  offset="0.5835" style="stop-color:#E7E7E7;stop-opacity:0.8826"/>
				<stop  offset="0.6939" style="stop-color:#D4D4D4;stop-opacity:0.8604"/>
				<stop  offset="0.7933" style="stop-color:#BBBBBB;stop-opacity:0.8404"/>
				<stop  offset="0.8847" style="stop-color:#9C9C9C;stop-opacity:0.822"/>
				<stop  offset="0.9683" style="stop-color:#787878;stop-opacity:0.8052"/>
				<stop  offset="0.9941" style="stop-color:#6B6B6B;stop-opacity:0.8"/>
			</linearGradient>
			<path fill="url(#SVGID_5_)" d="M272.207,416.291l-5.084,4.595v42.101c0,0,13.557,1.695,15.816-14.31v-42.302
				C277.291,411.507,272.207,416.291,272.207,416.291z"/>
		</g>
	</g>
</g>
</svg>
