<?xml version="1.0" encoding="utf-8"?>
<!-- Generator: Adobe Illustrator 17.0.0, SVG Export Plug-In . SVG Version: 6.00 Build 0)  -->
<!DOCTYPE svg PUBLIC "-//W3C//DTD SVG 1.1//EN" "http://www.w3.org/Graphics/SVG/1.1/DTD/svg11.dtd">
<svg version="1.1" id="圖層_1" xmlns="http://www.w3.org/2000/svg" xmlns:xlink="http://www.w3.org/1999/xlink" x="0px" y="0px"
	 width="470px" height="330px" viewBox="490 -1 470 330" enable-background="new 490 -1 470 330" xml:space="preserve">
<rect x="490" y="-1.293" fill="#A52B2B" width="470" height="330"/>
<g id="圖層_2_1_">
	<g>
		
			<linearGradient id="SVGID_1_" gradientUnits="userSpaceOnUse" x1="492.063" y1="915.8186" x2="492.063" y2="973.2453" gradientTransform="matrix(1 0 0 1 108 -801)">
			<stop  offset="0" style="stop-color:#FFFFFF"/>
			<stop  offset="0.1851" style="stop-color:#FCFCFC"/>
			<stop  offset="0.3371" style="stop-color:#F2F2F2"/>
			<stop  offset="0.4773" style="stop-color:#E0E0E0"/>
			<stop  offset="0.6105" style="stop-color:#C8C8C8"/>
			<stop  offset="0.7388" style="stop-color:#A9A9A9"/>
			<stop  offset="0.8633" style="stop-color:#838383"/>
			<stop  offset="0.9826" style="stop-color:#565656"/>
			<stop  offset="1" style="stop-color:#4F4F4F"/>
		</linearGradient>
		<path fill="url(#SVGID_1_)" d="M593.226,114.915l0.581,57.331c0,0,1.37-18.108,13.08-26.917v-16.102
			C606.887,129.227,607.863,113.45,593.226,114.915z"/>
		
			<linearGradient id="SVGID_2_" gradientUnits="userSpaceOnUse" x1="579.8895" y1="915.8186" x2="579.8895" y2="962.918" gradientTransform="matrix(1 0 0 1 108 -801)">
			<stop  offset="0" style="stop-color:#FFFFFF"/>
			<stop  offset="0.1851" style="stop-color:#FCFCFC"/>
			<stop  offset="0.3371" style="stop-color:#F2F2F2"/>
			<stop  offset="0.4773" style="stop-color:#E0E0E0"/>
			<stop  offset="0.6105" style="stop-color:#C8C8C8"/>
			<stop  offset="0.7388" style="stop-color:#A9A9A9"/>
			<stop  offset="0.8633" style="stop-color:#838383"/>
			<stop  offset="0.9826" style="stop-color:#565656"/>
			<stop  offset="1" style="stop-color:#4F4F4F"/>
		</linearGradient>
		<path fill="url(#SVGID_2_)" d="M681.052,114.915v47.003c0,0,4.43-7.083,13.661-15.614v-17.078
			C694.714,129.227,695.69,113.45,681.052,114.915z"/>
		
			<linearGradient id="SVGID_3_" gradientUnits="userSpaceOnUse" x1="612.8015" y1="937.2514" x2="612.8015" y2="991.0771" gradientTransform="matrix(1 0 0 1 108 -801)">
			<stop  offset="0" style="stop-color:#FFFFFF"/>
			<stop  offset="0.1851" style="stop-color:#FCFCFC"/>
			<stop  offset="0.3371" style="stop-color:#F2F2F2"/>
			<stop  offset="0.4773" style="stop-color:#E0E0E0"/>
			<stop  offset="0.6105" style="stop-color:#C8C8C8"/>
			<stop  offset="0.7388" style="stop-color:#A9A9A9"/>
			<stop  offset="0.8633" style="stop-color:#838383"/>
			<stop  offset="0.9826" style="stop-color:#565656"/>
			<stop  offset="1" style="stop-color:#4F4F4F"/>
		</linearGradient>
		<path fill="url(#SVGID_3_)" d="M681.052,161.918c0,0,5.245,4.473,17.565-0.651c0,0,5.279-3.442,9.921-7.156
			c0,0,5.34-4.343,12.334-4.67c0,0,14.828-1.024,22.472,12.476c0,0,4.067,6.668,2.439,16.752c0,0-1.83,8.573-5.042,11.407
			l19.808-17.441c0,0,0.36-18.036-12.814-27.469c0,0-11.674-10.471-30.26-8.717c-3.021,0.285-12.514,1.92-22.761,9.856
			C694.714,146.304,684.833,153.826,681.052,161.918z"/>
		<path fill="#FFFFFF" d="M792.461,122.511c0,4.248-8.214,11.595-8.214,11.595s-8.214-7.347-8.214-11.595
			c0-4.248,3.677-7.692,8.214-7.692C788.784,114.819,792.461,118.263,792.461,122.511z"/>
		<path fill="#FFFFFF" d="M618.17,137.724c0,0-31.258,11.771-22.963,47.39c0,0,9.743,36.299,49.916,25.24
			c0,0,11.54-3.888,18.859-13.158c0,0,7.315-8.125,10.405-9.914c0,0-12.2-4.387-20.82,0.817c0,0-4.229,2.442-6.832,5.369
			c0,0-9.597,7.808-22.444,2.928c0,0-20.493-6.668-14.964-30.576c0,0,4.88-15.938,25.535-15.775c0,0,8.783,0,15.933,8.297
			c0,0,34.648,34.966,40.178,39.357c0,0,8.945,8.295,13.174,10.409c0,0,7.551,4.684,20.121,4.375c0,0,13.058,0.992,23.955-9.742
			l33.828-30.577c0,0,19.354-18.216,21.956-19.192c0,0,6.831-5.123,18.176-2.074c0,0,12.626,3.049,17.138,15.857
			c0,0,0.792,2.684,0.792,5.245v29.763c0,0,2.927,11.969,14.638,10.742v-40.668c0,0,0.244-3.252-0.863-6.836
			c-2.089-6.763-8.63-20.764-21.948-25.448c0,0-14.334-7.197-31.298-0.394c0,0-7.4,3.932-11.303,8.201l-34.627,30.373
			l-18.655,16.467c0,0-5.241,3.66-9.876,4.025c0,0-9.878,1.708-20.125-6.343l-35.495-34.033c0,0-12.564-12.93-18.053-16.345
			C652.508,141.506,637.382,131.015,618.17,137.724z"/>
		<g>
			
				<linearGradient id="SVGID_4_" gradientUnits="userSpaceOnUse" x1="676.3682" y1="940.3111" x2="676.3682" y2="958.606" gradientTransform="matrix(1 0 0 1 108 -801)">
				<stop  offset="0" style="stop-color:#FFFFFF"/>
				<stop  offset="0.2544" style="stop-color:#FCFCFC;stop-opacity:0.8982"/>
				<stop  offset="0.4079" style="stop-color:#F4F4F4;stop-opacity:0.8369"/>
				<stop  offset="0.5346" style="stop-color:#E6E6E6;stop-opacity:0.7862"/>
				<stop  offset="0.6467" style="stop-color:#D1D1D1;stop-opacity:0.7413"/>
				<stop  offset="0.7492" style="stop-color:#B7B7B7;stop-opacity:0.7003"/>
				<stop  offset="0.8447" style="stop-color:#979797;stop-opacity:0.6621"/>
				<stop  offset="0.933" style="stop-color:#717171;stop-opacity:0.6268"/>
				<stop  offset="1" style="stop-color:#4F4F4F;stop-opacity:0.6"/>
			</linearGradient>
			<path fill="url(#SVGID_4_)" d="M789.341,147.362c0.523-0.572,1.112-1.137,1.734-1.688c-0.879-1.528-4.371-6.363-13.414-6.363
				v18.295L789.341,147.362z"/>
			
				<linearGradient id="SVGID_5_" gradientUnits="userSpaceOnUse" x1="676.4912" y1="1013.5438" x2="676.4912" y2="964.5989" gradientTransform="matrix(1 0 0 1 108 -801)">
				<stop  offset="0" style="stop-color:#FFFFFF"/>
				<stop  offset="0.2959" style="stop-color:#FDFDFD;stop-opacity:0.9405"/>
				<stop  offset="0.4559" style="stop-color:#F5F5F5;stop-opacity:0.9083"/>
				<stop  offset="0.5835" style="stop-color:#E7E7E7;stop-opacity:0.8826"/>
				<stop  offset="0.6939" style="stop-color:#D4D4D4;stop-opacity:0.8604"/>
				<stop  offset="0.7933" style="stop-color:#BBBBBB;stop-opacity:0.8404"/>
				<stop  offset="0.8847" style="stop-color:#9C9C9C;stop-opacity:0.822"/>
				<stop  offset="0.9683" style="stop-color:#787878;stop-opacity:0.8052"/>
				<stop  offset="0.9941" style="stop-color:#6B6B6B;stop-opacity:0.8"/>
			</linearGradient>
			<path fill="url(#SVGID_5_)" d="M782.052,172.164l-4.391,3.969v36.366c0,0,11.71,1.464,13.662-12.361v-36.54
				C786.443,168.032,782.052,172.164,782.052,172.164z"/>
		</g>
	</g>
</g>
</svg>
