<?xml version="1.0" encoding="utf-8"?>
<!-- Generator: Adobe Illustrator 22.0.1, SVG Export Plug-In . SVG Version: 6.00 Build 0)  -->
<svg version="1.1" id="圖層_1" focusable="false" xmlns="http://www.w3.org/2000/svg" xmlns:xlink="http://www.w3.org/1999/xlink"
	 x="0px" y="0px" viewBox="0 0 448 512" style="enable-background:new 0 0 448 512;" xml:space="preserve">
<style type="text/css">
	.st0{fill:#FFFFFF;}
</style>
<g>
	<path class="st0" d="M282.3,127.7H165.7c-18.7,0-35,7-47.8,18.7C106.2,159.2,98,175.5,98,194.2v123.7c0,17.5,8.2,35,19.8,46.7
		c12.8,12.8,29.2,19.8,47.8,19.8h116.7c18.7,0,35-7,46.7-19.8c12.8-11.7,19.8-29.2,19.8-46.7V194.2c0-18.7-7-35-19.8-47.8
		C317.3,134.7,301,127.7,282.3,127.7z M280,310.8c-14,14-33.8,23.3-56,23.3s-42-9.3-56-23.3c-15.2-15.2-23.3-33.8-23.3-56
		s8.2-42,23.3-56c14-15.2,33.8-23.3,56-23.3s42,8.2,56,23.3c14,14,23.3,33.8,23.3,56S294,295.7,280,310.8z M309.2,189.5
		c-10.3,0-18.7-8.4-18.7-18.7s8.4-18.7,18.7-18.7c10.3,0,18.7,8.4,18.7,18.7S319.5,189.5,309.2,189.5z"/>
	<path class="st0" d="M224,201.2c-15.2,0-28,5.8-38.5,15.2c-9.3,10.5-15.2,23.3-15.2,38.5c0,14,5.8,28,15.2,37.3
		c10.5,9.3,23.3,15.2,38.5,15.2c14,0,28-5.8,37.3-15.2c9.3-9.3,16.3-23.3,16.3-37.3c0-15.2-7-28-16.3-38.5
		C252,207,238,201.2,224,201.2z"/>
	<path class="st0" d="M414.4,32H33.6C15.1,32,0,47.1,0,65.6v380.7C0,464.9,15.1,480,33.6,480h380.7c18.6,0,33.6-15.1,33.6-33.6V65.6
		C448,47.1,432.9,32,414.4,32z M374.5,317.8c0,25.7-10.5,47.8-26.8,65.3C331.3,399.5,308,410,282.3,410H165.7
		c-25.7,0-49-10.5-65.3-26.8c-17.5-17.5-28-39.7-28-65.3V194.2c0-25.7,10.5-49,28-65.3c16.3-17.5,39.7-28,65.3-28h116.7
		c25.7,0,49,10.5,65.3,28c16.3,16.3,26.8,39.7,26.8,65.3V317.8z"/>
</g>
</svg>
