<?xml version="1.0" encoding="UTF-8"?>
<svg width="32px" height="28px" viewBox="0 0 32 28" version="1.1" xmlns="http://www.w3.org/2000/svg" xmlns:xlink="http://www.w3.org/1999/xlink">
    <!-- Generator: Sketch 43.2 (39069) - http://www.bohemiancoding.com/sketch -->
    <title>Fill-12-Copy</title>
    <desc>Created with Sketch.</desc>
    <defs></defs>
    <g id="Page-1" stroke="none" stroke-width="1" fill="none" fill-rule="evenodd">
        <g id="pc-1920-index" transform="translate(-1400.000000, -2866.000000)" fill-rule="nonzero" fill="#F9F6F2">
            <path d="M1410.37497,2882.07843 C1408.31041,2882.49486 1406.91745,2884.22973 1407.26328,2885.95173 C1407.60911,2887.67533 1409.56214,2888.73571 1411.62671,2888.32008 C1413.69047,2887.90365 1415.08423,2886.17039 1414.7384,2884.44678 C1414.39256,2882.72318 1412.43793,2881.66361 1410.37497,2882.07843 L1410.37497,2882.07843 Z M1427.19237,2875.38176 C1426.68446,2872.89604 1424.72902,2870.93608 1422.24801,2870.428 C1421.64622,2870.30339 1421.05806,2870.69249 1420.9361,2871.29382 C1420.81172,2871.89676 1421.20008,2872.48604 1421.80028,2872.60984 C1423.41309,2872.94106 1424.68489,2874.21447 1425.01387,2875.83035 C1425.13824,2876.43249 1425.7264,2876.82078 1426.32819,2876.69618 C1426.92838,2876.57157 1427.31594,2875.98471 1427.19237,2875.38176 L1427.19237,2875.38176 Z M1431.61196,2875.54416 C1431.60875,2870.27284 1427.34242,2866 1422.08111,2866 C1421.46648,2866 1420.96819,2866.49924 1420.96819,2867.11504 C1420.96819,2867.73004 1421.46648,2868.22927 1422.08111,2868.22927 C1426.11556,2868.22927 1429.38692,2871.50686 1429.38692,2875.54898 C1429.38692,2876.16478 1429.88521,2876.66402 1430.49984,2876.66402 C1431.11368,2876.66402 1431.61196,2876.16478 1431.61196,2875.54898 L1431.61196,2875.54416 Z M1413.00281,2891.03412 C1407.87872,2891.5422 1403.45672,2889.21082 1403.12292,2885.81908 C1402.79073,2882.43135 1406.67513,2879.27033 1411.79922,2878.75984 C1416.92412,2878.24855 1421.34692,2880.58314 1421.67911,2883.97167 C1422.01131,2887.361 1418.12771,2890.52282 1413.00281,2891.03412 L1413.00281,2891.03412 Z M1423.25181,2879.79529 C1422.81611,2879.66345 1422.51681,2879.5718 1422.74469,2878.98735 C1423.23977,2877.71876 1423.29032,2876.62463 1422.75593,2875.84482 C1421.75053,2874.38008 1418.99992,2874.45967 1415.84891,2875.80624 C1415.84891,2875.80463 1414.85956,2876.24678 1415.11231,2875.44688 C1415.59776,2873.85673 1415.52394,2872.52624 1414.76969,2871.75688 C1413.06219,2870.01318 1408.51502,2871.82361 1404.61538,2875.7982 C1401.69466,2878.77592 1400,2881.93212 1400,2884.66143 C1400,2889.8821 1406.56359,2893.37433 1412.98596,2893.37433 C1421.40389,2893.37433 1427.00461,2888.06845 1427.00461,2884.10833 C1427.00461,2881.71506 1425.02831,2880.35643 1423.25181,2879.79529 L1423.25181,2879.79529 Z" id="Fill-12-Copy"></path>
        </g>
    </g>
</svg>