<?xml version="1.0" encoding="UTF-8"?>
<svg width="77px" height="74px" viewBox="0 0 77 74" version="1.1" xmlns="http://www.w3.org/2000/svg" xmlns:xlink="http://www.w3.org/1999/xlink">
    <!-- Generator: Sketch 43.2 (39069) - http://www.bohemiancoding.com/sketch -->
    <title>Group</title>
    <desc>Created with Sketch.</desc>
    <defs></defs>
    <g id="Page-1" stroke="none" stroke-width="1" fill="none" fill-rule="evenodd">
        <g id="0---首頁_final" transform="translate(-808.000000, -3168.000000)">
            <g id="8-icon-hows" transform="translate(526.000000, 3165.000000)">
                <g id="Group-3" transform="translate(220.000000, 3.000000)">
                    <g id="Group" transform="translate(62.000000, 0.000000)">
                        <path d="M70.58174,0 L6.41652182,0 C2.87781004,0 0,2.87781004 0,6.41652182 L0,48.1239136 C0,51.6626254 2.87781004,54.5404355 6.41652182,54.5404355 L32.0826091,54.5404355 L32.0826091,48.1239136 L6.41652182,48.1239136 L6.41652182,6.41652182 L70.58174,6.41652182 L70.58174,48.1239136 L60.9569573,48.1239136 L60.9569573,54.5404355 L70.58174,54.5404355 C74.1204518,54.5404355 76.9982618,51.6626254 76.9982618,48.1239136 L76.9982618,6.41652182 C76.9982618,2.87781004 74.1204518,0 70.58174,0" id="Fill-71" fill="#626262"></path>
                        <path d="M43.3115223,59.3528268 C44.193794,59.3528268 44.9156527,60.0714773 44.9156527,60.9569573 C44.9156527,61.839229 44.193794,62.5610877 43.3115223,62.5610877 C42.4260423,62.5610877 41.7073918,61.839229 41.7073918,60.9569573 C41.7073918,60.0714773 42.4260423,59.3528268 43.3115223,59.3528268 L43.3115223,59.3528268 Z M43.3115223,52.936305 C44.193794,52.936305 44.9156527,53.6549554 44.9156527,54.5404355 C44.9156527,55.4227072 44.193794,56.1445659 43.3115223,56.1445659 C42.4260423,56.1445659 41.7073918,55.4227072 41.7073918,54.5404355 C41.7073918,53.6549554 42.4260423,52.936305 43.3115223,52.936305 L43.3115223,52.936305 Z M43.3115223,46.5197832 C44.193794,46.5197832 44.9156527,47.2384336 44.9156527,48.1239136 C44.9156527,49.0061854 44.193794,49.7280441 43.3115223,49.7280441 C42.4260423,49.7280441 41.7073918,49.0061854 41.7073918,48.1239136 C41.7073918,47.2384336 42.4260423,46.5197832 43.3115223,46.5197832 L43.3115223,46.5197832 Z M49.7280441,59.3528268 C50.6103158,59.3528268 51.3321745,60.0714773 51.3321745,60.9569573 C51.3321745,61.839229 50.6103158,62.5610877 49.7280441,62.5610877 C48.8425641,62.5610877 48.1239136,61.839229 48.1239136,60.9569573 C48.1239136,60.0714773 48.8425641,59.3528268 49.7280441,59.3528268 L49.7280441,59.3528268 Z M49.7280441,52.936305 C50.6103158,52.936305 51.3321745,53.6549554 51.3321745,54.5404355 C51.3321745,55.4227072 50.6103158,56.1445659 49.7280441,56.1445659 C48.8425641,56.1445659 48.1239136,55.4227072 48.1239136,54.5404355 C48.1239136,53.6549554 48.8425641,52.936305 49.7280441,52.936305 L49.7280441,52.936305 Z M49.7280441,46.5197832 C50.6103158,46.5197832 51.3321745,47.2384336 51.3321745,48.1239136 C51.3321745,49.0061854 50.6103158,49.7280441 49.7280441,49.7280441 C48.8425641,49.7280441 48.1239136,49.0061854 48.1239136,48.1239136 C48.1239136,47.2384336 48.8425641,46.5197832 49.7280441,46.5197832 L49.7280441,46.5197832 Z M35.29087,73.7900009 L57.7486964,73.7900009 L57.7486964,38.4991309 L35.29087,38.4991309 L35.29087,73.7900009 Z" id="Fill-72" fill="#626262"></path>
                        <path d="M58.243731,20.9727224 C51.3555949,16.7410263 42.6836656,16.5549471 35.6158668,20.4850667 C34.8394677,20.9149737 34.5635573,21.890285 34.9934642,22.6666842 C35.4233712,23.439875 36.3954742,23.7157855 37.1782899,23.2890868 C43.22907,19.9204128 50.6626105,20.0808259 56.5658106,23.7061607 C56.8256797,23.8633655 57.1144232,23.943572 57.3999584,23.943572 C57.9389462,23.943572 58.465101,23.6708698 58.7698858,23.1767976 C59.2350836,22.4228563 58.9976723,21.434712 58.243731,20.9727224" id="Fill-73" fill="#E1614B"></path>
                        <path d="M54.0547048,29.4069195 C54.5936926,29.4069195 55.1230556,29.1342173 55.4246322,28.6433534 C55.8866217,27.8862038 55.6492104,26.9012677 54.8952691,26.4360699 C49.9737969,23.4203046 43.7786451,23.2823494 38.7320507,26.0895777 C37.9556515,26.5194847 37.6797411,27.494796 38.1064398,28.2711951 C38.539555,29.044386 39.5180746,29.3235047 40.2880572,28.8935977 C44.3272577,26.6510234 49.2776043,26.756896 53.2173487,29.1727164 C53.4804261,29.3331295 53.7691695,29.4069195 54.0547048,29.4069195" id="Fill-74" fill="#E1614B"></path>
                        <path d="M41.8610675,31.7191131 C41.0878766,32.1490201 40.8087579,33.1275397 41.2386649,33.9039388 C41.6653636,34.6771297 42.6470914,34.9530401 43.4170741,34.5263414 C45.4350702,33.4034501 47.9054311,33.451574 49.859262,34.6514636 C50.1223394,34.8118766 50.4110828,34.8856667 50.6966181,34.8856667 C51.2356059,34.8856667 51.7649689,34.6129645 52.0665455,34.1188923 C52.528535,33.3681592 52.2911237,32.3768066 51.5371824,31.914817 C48.5984154,30.1117744 44.8864576,30.0379844 41.8610675,31.7191131" id="Fill-75" fill="#E1614B"></path>
                    </g>
                </g>
            </g>
        </g>
    </g>
</svg>