<?xml version="1.0" encoding="UTF-8"?>
<svg width="50px" height="40px" viewBox="0 0 50 40" version="1.1" xmlns="http://www.w3.org/2000/svg" xmlns:xlink="http://www.w3.org/1999/xlink">
    <!-- Generator: Sketch 43.2 (39069) - http://www.bohemiancoding.com/sketch -->
    <title>email</title>
    <desc>Created with Sketch.</desc>
    <defs></defs>
    <g id="Page-1" stroke="none" stroke-width="1" fill="none" fill-rule="evenodd">
        <g id="3-contentus" transform="translate(-506.000000, -889.000000)">
            <g id="info-text" transform="translate(506.000000, 671.000000)">
                <g transform="translate(0.000000, 31.000000)" id="email">
                    <g transform="translate(0.000000, 187.000000)">
                        <g id="commingsoon-copy-2" fill-rule="nonzero" fill="#34302A">
                            <path d="M2,3.97100094 L2,35.9226161 C2,37.0032962 2.90164258,37.8989362 4.00718972,37.8989362 L45.9928103,37.8989362 C47.1126187,37.8989362 48,37.0173572 48,35.9226161 L48,3.97100094 C48,2.89032079 47.0983574,1.99468085 45.9928103,1.99468085 L4.00718972,1.99468085 C2.88738133,1.99468085 2,2.87625987 2,3.97100094 Z M0,3.97100094 C0,1.77787768 1.77952647,0 4.00718972,0 L45.9928103,0 C48.2059201,0 50,1.79164704 50,3.97100094 L50,35.9226161 C50,38.1157393 48.2204735,39.893617 45.9928103,39.893617 L4.00718972,39.893617 C1.79407995,39.893617 0,38.10197 0,35.9226161 L0,3.97100094 Z" id="Rectangle"></path>
                            <polygon id="Line" points="1 12.9654255 49 12.9654255 49 10.9707447 1 10.9707447"></polygon>
                            <path d="M9,8.97606383 C7.8954305,8.97606383 7,8.08301479 7,6.98138298 C7,5.87975116 7.8954305,4.98670213 9,4.98670213 C10.1045695,4.98670213 11,5.87975116 11,6.98138298 C11,8.08301479 10.1045695,8.97606383 9,8.97606383 Z" id="Oval"></path>
                            <path d="M15,8.97606383 C13.8954305,8.97606383 13,8.08301479 13,6.98138298 C13,5.87975116 13.8954305,4.98670213 15,4.98670213 C16.1045695,4.98670213 17,5.87975116 17,6.98138298 C17,8.08301479 16.1045695,8.97606383 15,8.97606383 Z" id="Oval-Copy"></path>
                            <path d="M21,8.97606383 C19.8954305,8.97606383 19,8.08301479 19,6.98138298 C19,5.87975116 19.8954305,4.98670213 21,4.98670213 C22.1045695,4.98670213 23,5.87975116 23,6.98138298 C23,8.08301479 22.1045695,8.97606383 21,8.97606383 Z" id="Oval-Copy-2"></path>
                        </g>
                        <path d="M40.3616388,15.5682408 L43.0479263,17.5871199 L34.2761207,29.1967401 L31.5898332,27.177861 L40.3616388,15.5682408 Z M30.7358513,29.0902368 L30.6517571,29.7337512 L31.9979678,28.9943315 L31.6216798,28.7155339 L30.7358513,29.0902368 Z M30.8586918,28.1502242 L32.4435103,29.3244408 L32.8118556,29.5973535 L33.427193,30.0532666 L32.9132769,30.3355402 L32.1616576,30.7483746 L31.260606,31.2432862 L30.3921569,31.7202906 L30.8586918,28.1502242 Z" id="Combined-Shape" fill="#E1614B" fill-rule="nonzero"></path>
                        <rect id="Rectangle-9" fill="#34302A" x="8" y="15.9574468" width="14" height="1.99468085"></rect>
                        <rect id="Rectangle-9-Copy" fill="#34302A" x="8" y="19.9468085" width="14" height="1.99468085"></rect>
                        <rect id="Rectangle-9-Copy-2" fill="#34302A" x="8" y="23.9361702" width="14" height="1.99468085"></rect>
                        <rect id="Rectangle-10" fill="#34302A" x="8" y="27.9255319" width="14" height="5.98404255"></rect>
                        <path d="M23.7934999,33.6480921 C24.386576,33.0411736 24.9111296,32.9880077 26.314445,33.2170841 C26.3863665,33.2288235 26.3863665,33.2288235 26.458992,33.2405678 C27.8888405,33.470727 28.6791264,33.3997297 29.5172062,32.7025692 L28.887436,31.956852 C28.3309136,32.4197977 27.7872276,32.4686411 26.6159489,32.2801032 C26.5450929,32.2686452 26.5450929,32.2686452 26.4735591,32.2569692 C24.7754851,31.9797766 23.9791593,32.060488 23.0897261,32.9706804 L23.7934999,33.6480921 Z" id="Path-3" fill="#E1614B" fill-rule="nonzero"></path>
                    </g>
                </g>
            </g>
        </g>
    </g>
</svg>