<?xml version="1.0" encoding="utf-8"?>
<!-- Generator: Adobe Illustrator 17.0.0, SVG Export Plug-In . SVG Version: 6.00 Build 0)  -->
<!DOCTYPE svg PUBLIC "-//W3C//DTD SVG 1.1//EN" "http://www.w3.org/Graphics/SVG/1.1/DTD/svg11.dtd">
<svg version="1.1" xmlns="http://www.w3.org/2000/svg" xmlns:xlink="http://www.w3.org/1999/xlink" x="0px" y="0px"
	 width="227.254px" height="197.546px" viewBox="0 0 227.254 197.546" enable-background="new 0 0 227.254 197.546"
	 xml:space="preserve">
<g id="guide-line">
</g>
<g id="圖層_3" display="none">
</g>
<g id="圖層_7">
</g>
<g id="圖層_11">
</g>
<g id="圖層_4">
</g>
<g id="圖層_5">
</g>
<g id="圖層_8" display="none">
</g>
<g id="圖層_8_拷貝" display="none">
</g>
<g id="圖層_10">
</g>
<g id="page1-content">
</g>
<g id="圖層_12" display="none">
</g>
<g id="圖層_2">
</g>
<g id="圖層_13">
</g>
<g id="whatsnew">
</g>
<g id="圖層_16">
</g>
<g id="遮罩">
</g>
<g id="圖層_19">
</g>
<g id="圖層_21">
</g>
<g id="圖層_20">
	<g>
		<g>
			<path fill="#33CCCC" d="M227.254,197.546c-2.973,0-4.425-2.146-5.829-4.22c-1.316-1.944-2.559-3.78-5.001-3.78
				s-3.685,1.836-5.001,3.78c-1.404,2.074-2.856,4.22-5.83,4.22c-2.971,0-4.422-2.146-5.826-4.22
				c-1.315-1.944-2.557-3.78-4.998-3.78c-2.441,0-3.684,1.836-4.999,3.78c-1.404,2.074-2.855,4.22-5.827,4.22
				c-2.971,0-4.422-2.146-5.826-4.22c-1.315-1.944-2.557-3.78-4.997-3.78c-2.439,0-3.681,1.836-4.996,3.78
				c-1.403,2.074-2.854,4.22-5.824,4.22s-4.421-2.146-5.824-4.22c-1.315-1.944-2.556-3.78-4.996-3.78
				c-2.44,0-3.682,1.836-4.997,3.78c-1.403,2.074-2.854,4.22-5.825,4.22c-2.971,0-4.422-2.146-5.825-4.22
				c-1.315-1.944-2.557-3.78-4.997-3.78c-2.44,0-3.682,1.836-4.998,3.78c-1.403,2.074-2.854,4.22-5.826,4.22
				c-2.971,0-4.422-2.146-5.825-4.22c-1.315-1.944-2.557-3.78-4.997-3.78c-2.44,0-3.682,1.836-4.996,3.78
				c-1.403,2.074-2.854,4.22-5.824,4.22s-4.421-2.146-5.824-4.22c-1.315-1.944-2.557-3.78-4.996-3.78
				c-2.44,0-3.682,1.836-4.997,3.78c-1.403,2.074-2.854,4.22-5.825,4.22c-2.971,0-4.421-2.146-5.824-4.22
				c-1.315-1.944-2.556-3.78-4.996-3.78c-2.439,0-3.68,1.836-4.995,3.78c-1.403,2.074-2.853,4.22-5.823,4.22
				c-2.97,0-4.421-2.146-5.824-4.22c-1.315-1.944-2.556-3.78-4.996-3.78c-2.439,0-3.68,1.836-4.994,3.78
				c-1.403,2.074-2.853,4.22-5.823,4.22c-2.97,0-4.42-2.146-5.823-4.22c-1.314-1.944-2.556-3.78-4.995-3.78
				c-2.438,0-3.679,1.836-4.994,3.78c-1.402,2.074-2.853,4.22-5.822,4.22c-2.97,0-4.421-2.146-5.824-4.22
				c-1.315-1.944-2.556-3.78-4.996-3.78v-1c2.971,0,4.421,2.146,5.824,4.22c1.315,1.944,2.556,3.78,4.996,3.78
				c2.438,0,3.679-1.836,4.994-3.78c1.402-2.074,2.853-4.22,5.822-4.22c2.97,0,4.42,2.146,5.823,4.22
				c1.314,1.944,2.556,3.78,4.995,3.78c2.439,0,3.68-1.836,4.994-3.78c1.403-2.074,2.853-4.22,5.823-4.22
				c2.97,0,4.421,2.146,5.824,4.22c1.315,1.944,2.556,3.78,4.996,3.78c2.439,0,3.68-1.836,4.994-3.78
				c1.403-2.074,2.853-4.22,5.823-4.22c2.971,0,4.421,2.146,5.824,4.22c1.315,1.944,2.556,3.78,4.996,3.78
				c2.44,0,3.682-1.836,4.997-3.78c1.403-2.074,2.854-4.22,5.825-4.22c2.971,0,4.421,2.146,5.824,4.22
				c1.315,1.944,2.556,3.78,4.996,3.78s3.681-1.836,4.996-3.78c1.403-2.074,2.854-4.22,5.825-4.22c2.971,0,4.422,2.146,5.825,4.22
				c1.315,1.944,2.557,3.78,4.997,3.78c2.44,0,3.683-1.836,4.998-3.78c1.403-2.074,2.854-4.22,5.826-4.22
				c2.971,0,4.422,2.146,5.825,4.22c1.315,1.944,2.557,3.78,4.997,3.78c2.44,0,3.682-1.836,4.997-3.78
				c1.403-2.074,2.854-4.22,5.825-4.22c2.97,0,4.421,2.146,5.824,4.22c1.314,1.944,2.556,3.78,4.996,3.78
				c2.44,0,3.681-1.836,4.996-3.78c1.403-2.074,2.854-4.22,5.824-4.22c2.971,0,4.422,2.146,5.825,4.22
				c1.315,1.944,2.557,3.78,4.998,3.78c2.441,0,3.684-1.836,4.999-3.78c1.404-2.074,2.855-4.22,5.827-4.22
				c2.971,0,4.422,2.146,5.826,4.22c1.315,1.944,2.557,3.78,4.998,3.78c2.442,0,3.686-1.836,5.001-3.78
				c1.404-2.074,2.856-4.22,5.829-4.22s4.425,2.146,5.829,4.22c1.316,1.944,2.559,3.78,5.001,3.78V197.546z"/>
			<path fill="#33CCCC" d="M227.254,188.568c-2.973,0-4.425-2.146-5.829-4.22c-1.316-1.944-2.559-3.78-5.001-3.78
				s-3.685,1.836-5.001,3.78c-1.404,2.074-2.856,4.22-5.83,4.22c-2.971,0-4.422-2.146-5.826-4.22
				c-1.315-1.944-2.557-3.78-4.998-3.78c-2.441,0-3.684,1.836-4.999,3.78c-1.404,2.074-2.855,4.22-5.827,4.22
				c-2.971,0-4.422-2.146-5.826-4.22c-1.315-1.944-2.557-3.78-4.997-3.78c-2.439,0-3.681,1.836-4.996,3.78
				c-1.403,2.074-2.854,4.22-5.824,4.22s-4.421-2.146-5.824-4.22c-1.315-1.944-2.556-3.78-4.996-3.78
				c-2.44,0-3.682,1.836-4.997,3.78c-1.403,2.074-2.854,4.22-5.825,4.22c-2.971,0-4.422-2.146-5.825-4.22
				c-1.315-1.944-2.557-3.78-4.997-3.78c-2.44,0-3.682,1.836-4.998,3.78c-1.403,2.074-2.854,4.22-5.826,4.22
				c-2.971,0-4.422-2.146-5.825-4.22c-1.315-1.944-2.557-3.78-4.997-3.78c-2.44,0-3.682,1.836-4.996,3.78
				c-1.403,2.074-2.854,4.22-5.824,4.22s-4.421-2.146-5.824-4.22c-1.315-1.944-2.557-3.78-4.996-3.78
				c-2.44,0-3.682,1.836-4.997,3.78c-1.403,2.074-2.854,4.22-5.825,4.22c-2.971,0-4.421-2.146-5.824-4.22
				c-1.315-1.944-2.556-3.78-4.996-3.78c-2.439,0-3.68,1.836-4.995,3.78c-1.403,2.074-2.853,4.22-5.823,4.22
				c-2.97,0-4.421-2.146-5.824-4.22c-1.315-1.944-2.556-3.78-4.996-3.78c-2.439,0-3.68,1.836-4.994,3.78
				c-1.403,2.074-2.853,4.22-5.823,4.22c-2.97,0-4.42-2.146-5.823-4.22c-1.314-1.944-2.556-3.78-4.995-3.78
				c-2.438,0-3.679,1.836-4.994,3.78c-1.402,2.074-2.853,4.22-5.822,4.22c-2.97,0-4.421-2.146-5.824-4.22
				c-1.315-1.944-2.556-3.78-4.996-3.78v-1c2.971,0,4.421,2.146,5.824,4.22c1.315,1.944,2.556,3.78,4.996,3.78
				c2.438,0,3.679-1.836,4.994-3.78c1.402-2.074,2.853-4.22,5.822-4.22c2.97,0,4.42,2.146,5.823,4.22
				c1.314,1.944,2.556,3.78,4.995,3.78c2.439,0,3.68-1.836,4.994-3.78c1.403-2.074,2.853-4.22,5.823-4.22
				c2.97,0,4.421,2.146,5.824,4.22c1.315,1.944,2.556,3.78,4.996,3.78c2.439,0,3.68-1.836,4.994-3.78
				c1.403-2.074,2.853-4.22,5.823-4.22c2.971,0,4.421,2.146,5.824,4.22c1.315,1.944,2.556,3.78,4.996,3.78
				c2.44,0,3.682-1.836,4.997-3.78c1.403-2.074,2.854-4.22,5.825-4.22c2.971,0,4.421,2.146,5.824,4.22
				c1.315,1.944,2.556,3.78,4.996,3.78s3.681-1.836,4.996-3.78c1.403-2.074,2.854-4.22,5.825-4.22c2.971,0,4.422,2.146,5.825,4.22
				c1.315,1.944,2.557,3.78,4.997,3.78c2.44,0,3.683-1.836,4.998-3.78c1.403-2.074,2.854-4.22,5.826-4.22
				c2.971,0,4.422,2.146,5.825,4.22c1.315,1.944,2.557,3.78,4.997,3.78c2.44,0,3.682-1.836,4.997-3.78
				c1.403-2.074,2.854-4.22,5.825-4.22c2.97,0,4.421,2.146,5.824,4.22c1.314,1.944,2.556,3.78,4.996,3.78
				c2.44,0,3.681-1.836,4.996-3.78c1.403-2.074,2.854-4.22,5.824-4.22c2.971,0,4.422,2.146,5.825,4.22
				c1.315,1.944,2.557,3.78,4.998,3.78c2.441,0,3.684-1.836,4.999-3.78c1.404-2.074,2.855-4.22,5.827-4.22
				c2.971,0,4.422,2.146,5.826,4.22c1.315,1.944,2.557,3.78,4.998,3.78c2.442,0,3.686-1.836,5.001-3.78
				c1.404-2.074,2.856-4.22,5.829-4.22s4.425,2.146,5.829,4.22c1.316,1.944,2.559,3.78,5.001,3.78V188.568z"/>
			<path fill="#33CCCC" d="M227.254,179.589c-2.973,0-4.425-2.146-5.829-4.22c-1.316-1.944-2.559-3.78-5.001-3.78
				s-3.685,1.836-5.001,3.78c-1.404,2.074-2.856,4.22-5.83,4.22c-2.971,0-4.422-2.146-5.826-4.22
				c-1.315-1.944-2.557-3.78-4.998-3.78c-2.441,0-3.684,1.836-4.999,3.78c-1.404,2.074-2.855,4.22-5.827,4.22
				c-2.971,0-4.422-2.146-5.826-4.22c-1.315-1.944-2.557-3.78-4.997-3.78c-2.439,0-3.681,1.836-4.996,3.78
				c-1.403,2.074-2.854,4.22-5.824,4.22s-4.421-2.146-5.824-4.22c-1.315-1.944-2.556-3.78-4.996-3.78
				c-2.44,0-3.682,1.836-4.997,3.78c-1.403,2.074-2.854,4.22-5.825,4.22c-2.971,0-4.422-2.146-5.825-4.22
				c-1.315-1.944-2.557-3.78-4.997-3.78c-2.44,0-3.682,1.836-4.998,3.78c-1.403,2.074-2.854,4.22-5.826,4.22
				c-2.971,0-4.422-2.146-5.825-4.22c-1.315-1.944-2.557-3.78-4.997-3.78c-2.44,0-3.682,1.836-4.996,3.78
				c-1.403,2.074-2.854,4.22-5.824,4.22s-4.421-2.146-5.824-4.22c-1.315-1.944-2.557-3.78-4.996-3.78
				c-2.44,0-3.682,1.836-4.997,3.78c-1.403,2.074-2.854,4.22-5.825,4.22c-2.971,0-4.421-2.146-5.824-4.22
				c-1.315-1.944-2.556-3.78-4.996-3.78c-2.439,0-3.68,1.836-4.995,3.78c-1.403,2.074-2.853,4.22-5.823,4.22
				c-2.97,0-4.421-2.146-5.824-4.22c-1.315-1.944-2.556-3.78-4.996-3.78c-2.439,0-3.68,1.836-4.994,3.78
				c-1.403,2.074-2.853,4.22-5.823,4.22c-2.97,0-4.42-2.146-5.823-4.22c-1.314-1.944-2.556-3.78-4.995-3.78
				c-2.438,0-3.679,1.836-4.994,3.78c-1.402,2.074-2.853,4.22-5.822,4.22c-2.97,0-4.421-2.146-5.824-4.22
				c-1.315-1.944-2.556-3.78-4.996-3.78v-1c2.971,0,4.421,2.146,5.824,4.22c1.315,1.944,2.556,3.78,4.996,3.78
				c2.438,0,3.679-1.836,4.994-3.78c1.402-2.074,2.853-4.22,5.822-4.22c2.97,0,4.42,2.146,5.823,4.22
				c1.314,1.944,2.556,3.78,4.995,3.78c2.439,0,3.68-1.836,4.994-3.78c1.403-2.074,2.853-4.22,5.823-4.22
				c2.97,0,4.421,2.146,5.824,4.22c1.315,1.944,2.556,3.78,4.996,3.78c2.439,0,3.68-1.836,4.994-3.78
				c1.403-2.074,2.853-4.22,5.823-4.22c2.971,0,4.421,2.146,5.824,4.22c1.315,1.944,2.556,3.78,4.996,3.78
				c2.44,0,3.682-1.836,4.997-3.78c1.403-2.074,2.854-4.22,5.825-4.22c2.971,0,4.421,2.146,5.824,4.22
				c1.315,1.944,2.556,3.78,4.996,3.78s3.681-1.836,4.996-3.78c1.403-2.074,2.854-4.22,5.825-4.22c2.971,0,4.422,2.146,5.825,4.22
				c1.315,1.944,2.557,3.78,4.997,3.78c2.44,0,3.683-1.836,4.998-3.78c1.403-2.074,2.854-4.22,5.826-4.22
				c2.971,0,4.422,2.146,5.825,4.22c1.315,1.944,2.557,3.78,4.997,3.78c2.44,0,3.682-1.836,4.997-3.78
				c1.403-2.074,2.854-4.22,5.825-4.22c2.97,0,4.421,2.146,5.824,4.22c1.314,1.944,2.556,3.78,4.996,3.78
				c2.44,0,3.681-1.836,4.996-3.78c1.403-2.074,2.854-4.22,5.824-4.22c2.971,0,4.422,2.146,5.825,4.22
				c1.315,1.944,2.557,3.78,4.998,3.78c2.441,0,3.684-1.836,4.999-3.78c1.404-2.074,2.855-4.22,5.827-4.22
				c2.971,0,4.422,2.146,5.826,4.22c1.315,1.944,2.557,3.78,4.998,3.78c2.442,0,3.686-1.836,5.001-3.78
				c1.404-2.074,2.856-4.22,5.829-4.22s4.425,2.146,5.829,4.22c1.316,1.944,2.559,3.78,5.001,3.78V179.589z"/>
			<path fill="#33CCCC" d="M227.254,170.611c-2.973,0-4.425-2.146-5.829-4.22c-1.316-1.944-2.559-3.78-5.001-3.78
				s-3.685,1.836-5.001,3.78c-1.404,2.074-2.856,4.22-5.83,4.22c-2.971,0-4.422-2.146-5.826-4.22
				c-1.315-1.944-2.557-3.78-4.998-3.78c-2.441,0-3.684,1.836-4.999,3.78c-1.404,2.074-2.855,4.22-5.827,4.22
				c-2.971,0-4.422-2.146-5.826-4.22c-1.315-1.944-2.557-3.78-4.997-3.78c-2.439,0-3.681,1.836-4.996,3.78
				c-1.403,2.074-2.854,4.22-5.824,4.22s-4.421-2.146-5.824-4.22c-1.315-1.944-2.556-3.78-4.996-3.78
				c-2.44,0-3.682,1.836-4.997,3.78c-1.403,2.074-2.854,4.22-5.825,4.22c-2.971,0-4.422-2.146-5.825-4.22
				c-1.315-1.944-2.557-3.78-4.997-3.78c-2.44,0-3.682,1.836-4.998,3.78c-1.403,2.074-2.854,4.22-5.826,4.22
				c-2.971,0-4.422-2.146-5.825-4.22c-1.315-1.944-2.557-3.78-4.997-3.78c-2.44,0-3.682,1.836-4.996,3.78
				c-1.403,2.074-2.854,4.22-5.824,4.22s-4.421-2.146-5.824-4.22c-1.315-1.944-2.557-3.78-4.996-3.78
				c-2.44,0-3.682,1.836-4.997,3.78c-1.403,2.074-2.854,4.22-5.825,4.22c-2.971,0-4.421-2.146-5.824-4.22
				c-1.315-1.944-2.556-3.78-4.996-3.78c-2.439,0-3.68,1.836-4.995,3.78c-1.403,2.074-2.853,4.22-5.823,4.22
				c-2.97,0-4.421-2.146-5.824-4.22c-1.315-1.944-2.556-3.78-4.996-3.78c-2.439,0-3.68,1.836-4.994,3.78
				c-1.403,2.074-2.853,4.22-5.823,4.22c-2.97,0-4.42-2.146-5.823-4.22c-1.314-1.944-2.556-3.78-4.995-3.78
				c-2.438,0-3.679,1.836-4.994,3.78c-1.402,2.074-2.853,4.22-5.822,4.22c-2.97,0-4.421-2.146-5.824-4.22
				c-1.315-1.944-2.556-3.78-4.996-3.78v-1c2.971,0,4.421,2.146,5.824,4.22c1.315,1.944,2.556,3.78,4.996,3.78
				c2.438,0,3.679-1.836,4.994-3.78c1.402-2.074,2.853-4.22,5.822-4.22c2.97,0,4.42,2.146,5.823,4.22
				c1.314,1.944,2.556,3.78,4.995,3.78c2.439,0,3.68-1.836,4.994-3.78c1.403-2.074,2.853-4.22,5.823-4.22
				c2.97,0,4.421,2.146,5.824,4.22c1.315,1.944,2.556,3.78,4.996,3.78c2.439,0,3.68-1.836,4.994-3.78
				c1.403-2.074,2.853-4.22,5.823-4.22c2.971,0,4.421,2.146,5.824,4.22c1.315,1.944,2.556,3.78,4.996,3.78
				c2.44,0,3.682-1.836,4.997-3.78c1.403-2.074,2.854-4.22,5.825-4.22c2.971,0,4.421,2.146,5.824,4.22
				c1.315,1.944,2.556,3.78,4.996,3.78s3.681-1.836,4.996-3.78c1.403-2.074,2.854-4.22,5.825-4.22c2.971,0,4.422,2.146,5.825,4.22
				c1.315,1.944,2.557,3.78,4.997,3.78c2.44,0,3.683-1.836,4.998-3.78c1.403-2.074,2.854-4.22,5.826-4.22
				c2.971,0,4.422,2.146,5.825,4.22c1.315,1.944,2.557,3.78,4.997,3.78c2.44,0,3.682-1.836,4.997-3.78
				c1.403-2.074,2.854-4.22,5.825-4.22c2.97,0,4.421,2.146,5.824,4.22c1.314,1.944,2.556,3.78,4.996,3.78
				c2.44,0,3.681-1.836,4.996-3.78c1.403-2.074,2.854-4.22,5.824-4.22c2.971,0,4.422,2.146,5.825,4.22
				c1.315,1.944,2.557,3.78,4.998,3.78c2.441,0,3.684-1.836,4.999-3.78c1.404-2.074,2.855-4.22,5.827-4.22
				c2.971,0,4.422,2.146,5.826,4.22c1.315,1.944,2.557,3.78,4.998,3.78c2.442,0,3.686-1.836,5.001-3.78
				c1.404-2.074,2.856-4.22,5.829-4.22s4.425,2.146,5.829,4.22c1.316,1.944,2.559,3.78,5.001,3.78V170.611z"/>
			<path fill="#33CCCC" d="M227.254,161.632c-2.973,0-4.425-2.146-5.829-4.22c-1.316-1.944-2.559-3.78-5.001-3.78
				s-3.685,1.836-5.001,3.78c-1.404,2.074-2.856,4.22-5.83,4.22c-2.971,0-4.422-2.146-5.826-4.22
				c-1.315-1.944-2.557-3.78-4.998-3.78c-2.441,0-3.684,1.836-4.999,3.78c-1.404,2.074-2.855,4.22-5.827,4.22
				c-2.971,0-4.422-2.146-5.826-4.22c-1.315-1.944-2.557-3.78-4.997-3.78c-2.439,0-3.681,1.836-4.996,3.78
				c-1.403,2.074-2.854,4.22-5.824,4.22s-4.421-2.146-5.824-4.22c-1.315-1.944-2.556-3.78-4.996-3.78
				c-2.44,0-3.682,1.836-4.997,3.78c-1.403,2.074-2.854,4.22-5.825,4.22c-2.971,0-4.422-2.146-5.825-4.22
				c-1.315-1.944-2.557-3.78-4.997-3.78c-2.44,0-3.682,1.836-4.998,3.78c-1.403,2.074-2.854,4.22-5.826,4.22
				c-2.971,0-4.422-2.146-5.825-4.22c-1.315-1.944-2.557-3.78-4.997-3.78c-2.44,0-3.682,1.836-4.996,3.78
				c-1.403,2.074-2.854,4.22-5.824,4.22s-4.421-2.146-5.824-4.22c-1.315-1.944-2.557-3.78-4.996-3.78
				c-2.44,0-3.682,1.836-4.997,3.78c-1.403,2.074-2.854,4.22-5.825,4.22c-2.971,0-4.421-2.146-5.824-4.22
				c-1.315-1.944-2.556-3.78-4.996-3.78c-2.439,0-3.68,1.836-4.995,3.78c-1.403,2.074-2.853,4.22-5.823,4.22
				c-2.97,0-4.421-2.146-5.824-4.22c-1.315-1.944-2.556-3.78-4.996-3.78c-2.439,0-3.68,1.836-4.994,3.78
				c-1.403,2.074-2.853,4.22-5.823,4.22c-2.97,0-4.42-2.146-5.823-4.22c-1.314-1.944-2.556-3.78-4.995-3.78
				c-2.438,0-3.679,1.836-4.994,3.78c-1.402,2.074-2.853,4.22-5.822,4.22c-2.97,0-4.421-2.146-5.824-4.22
				c-1.315-1.944-2.556-3.78-4.996-3.78v-1c2.971,0,4.421,2.146,5.824,4.22c1.315,1.944,2.556,3.78,4.996,3.78
				c2.438,0,3.679-1.836,4.994-3.78c1.402-2.074,2.853-4.22,5.822-4.22c2.97,0,4.42,2.146,5.823,4.22
				c1.314,1.944,2.556,3.78,4.995,3.78c2.439,0,3.68-1.836,4.994-3.78c1.403-2.074,2.853-4.22,5.823-4.22
				c2.97,0,4.421,2.146,5.824,4.22c1.315,1.944,2.556,3.78,4.996,3.78c2.439,0,3.68-1.836,4.994-3.78
				c1.403-2.074,2.853-4.22,5.823-4.22c2.971,0,4.421,2.146,5.824,4.22c1.315,1.944,2.556,3.78,4.996,3.78
				c2.44,0,3.682-1.836,4.997-3.78c1.403-2.074,2.854-4.22,5.825-4.22c2.971,0,4.421,2.146,5.824,4.22
				c1.315,1.944,2.556,3.78,4.996,3.78s3.681-1.836,4.996-3.78c1.403-2.074,2.854-4.22,5.825-4.22c2.971,0,4.422,2.146,5.825,4.22
				c1.315,1.944,2.557,3.78,4.997,3.78c2.44,0,3.683-1.836,4.998-3.78c1.403-2.074,2.854-4.22,5.826-4.22
				c2.971,0,4.422,2.146,5.825,4.22c1.315,1.944,2.557,3.78,4.997,3.78c2.44,0,3.682-1.836,4.997-3.78
				c1.403-2.074,2.854-4.22,5.825-4.22c2.97,0,4.421,2.146,5.824,4.22c1.314,1.944,2.556,3.78,4.996,3.78
				c2.44,0,3.681-1.836,4.996-3.78c1.403-2.074,2.854-4.22,5.824-4.22c2.971,0,4.422,2.146,5.825,4.22
				c1.315,1.944,2.557,3.78,4.998,3.78c2.441,0,3.684-1.836,4.999-3.78c1.404-2.074,2.855-4.22,5.827-4.22
				c2.971,0,4.422,2.146,5.826,4.22c1.315,1.944,2.557,3.78,4.998,3.78c2.442,0,3.686-1.836,5.001-3.78
				c1.404-2.074,2.856-4.22,5.829-4.22s4.425,2.146,5.829,4.22c1.316,1.944,2.559,3.78,5.001,3.78V161.632z"/>
			<path fill="#33CCCC" d="M227.254,152.654c-2.973,0-4.425-2.146-5.829-4.22c-1.316-1.944-2.559-3.78-5.001-3.78
				s-3.685,1.836-5.001,3.78c-1.404,2.074-2.856,4.22-5.83,4.22c-2.971,0-4.422-2.146-5.826-4.22
				c-1.315-1.944-2.557-3.78-4.998-3.78c-2.441,0-3.684,1.836-4.999,3.78c-1.404,2.074-2.855,4.22-5.827,4.22
				c-2.971,0-4.422-2.146-5.826-4.22c-1.315-1.944-2.557-3.78-4.997-3.78c-2.439,0-3.681,1.836-4.996,3.78
				c-1.403,2.074-2.854,4.22-5.824,4.22s-4.421-2.146-5.824-4.22c-1.315-1.944-2.556-3.78-4.996-3.78
				c-2.44,0-3.682,1.836-4.997,3.78c-1.403,2.074-2.854,4.22-5.825,4.22c-2.971,0-4.422-2.146-5.825-4.22
				c-1.315-1.944-2.557-3.78-4.997-3.78c-2.44,0-3.682,1.836-4.998,3.78c-1.403,2.074-2.854,4.22-5.826,4.22
				c-2.971,0-4.422-2.146-5.825-4.22c-1.315-1.944-2.557-3.78-4.997-3.78c-2.44,0-3.682,1.836-4.996,3.78
				c-1.403,2.074-2.854,4.22-5.824,4.22s-4.421-2.146-5.824-4.22c-1.315-1.944-2.557-3.78-4.996-3.78
				c-2.44,0-3.682,1.836-4.997,3.78c-1.403,2.074-2.854,4.22-5.825,4.22c-2.971,0-4.421-2.146-5.824-4.22
				c-1.315-1.944-2.556-3.78-4.996-3.78c-2.439,0-3.68,1.836-4.995,3.78c-1.403,2.074-2.853,4.22-5.823,4.22
				c-2.97,0-4.421-2.146-5.824-4.22c-1.315-1.944-2.556-3.78-4.996-3.78c-2.439,0-3.68,1.836-4.994,3.78
				c-1.403,2.074-2.853,4.22-5.823,4.22c-2.97,0-4.42-2.146-5.823-4.22c-1.314-1.944-2.556-3.78-4.995-3.78
				c-2.438,0-3.679,1.836-4.994,3.78c-1.402,2.074-2.853,4.22-5.822,4.22c-2.97,0-4.421-2.146-5.824-4.22
				c-1.315-1.944-2.556-3.78-4.996-3.78v-1c2.971,0,4.421,2.146,5.824,4.22c1.315,1.944,2.556,3.78,4.996,3.78
				c2.438,0,3.679-1.836,4.994-3.78c1.402-2.074,2.853-4.22,5.822-4.22c2.97,0,4.42,2.146,5.823,4.22
				c1.314,1.944,2.556,3.78,4.995,3.78c2.439,0,3.68-1.836,4.994-3.78c1.403-2.074,2.853-4.22,5.823-4.22
				c2.97,0,4.421,2.146,5.824,4.22c1.315,1.944,2.556,3.78,4.996,3.78c2.439,0,3.68-1.836,4.994-3.78
				c1.403-2.074,2.853-4.22,5.823-4.22c2.971,0,4.421,2.146,5.824,4.22c1.315,1.944,2.556,3.78,4.996,3.78
				c2.44,0,3.682-1.836,4.997-3.78c1.403-2.074,2.854-4.22,5.825-4.22c2.971,0,4.421,2.146,5.824,4.22
				c1.315,1.944,2.556,3.78,4.996,3.78s3.681-1.836,4.996-3.78c1.403-2.074,2.854-4.22,5.825-4.22c2.971,0,4.422,2.146,5.825,4.22
				c1.315,1.944,2.557,3.78,4.997,3.78c2.44,0,3.683-1.836,4.998-3.78c1.403-2.074,2.854-4.22,5.826-4.22
				c2.971,0,4.422,2.146,5.825,4.22c1.315,1.944,2.557,3.78,4.997,3.78c2.44,0,3.682-1.836,4.997-3.78
				c1.403-2.074,2.854-4.22,5.825-4.22c2.97,0,4.421,2.146,5.824,4.22c1.314,1.944,2.556,3.78,4.996,3.78
				c2.44,0,3.681-1.836,4.996-3.78c1.403-2.074,2.854-4.22,5.824-4.22c2.971,0,4.422,2.146,5.825,4.22
				c1.315,1.944,2.557,3.78,4.998,3.78c2.441,0,3.684-1.836,4.999-3.78c1.404-2.074,2.855-4.22,5.827-4.22
				c2.971,0,4.422,2.146,5.826,4.22c1.315,1.944,2.557,3.78,4.998,3.78c2.442,0,3.686-1.836,5.001-3.78
				c1.404-2.074,2.856-4.22,5.829-4.22s4.425,2.146,5.829,4.22c1.316,1.944,2.559,3.78,5.001,3.78V152.654z"/>
			<path fill="#33CCCC" d="M227.254,143.676c-2.973,0-4.425-2.146-5.829-4.22c-1.316-1.944-2.559-3.78-5.001-3.78
				s-3.685,1.836-5.001,3.78c-1.404,2.074-2.856,4.22-5.83,4.22c-2.971,0-4.422-2.146-5.826-4.22
				c-1.315-1.944-2.557-3.78-4.998-3.78c-2.441,0-3.684,1.836-4.999,3.78c-1.404,2.074-2.855,4.22-5.827,4.22
				c-2.971,0-4.422-2.146-5.826-4.22c-1.315-1.944-2.557-3.78-4.997-3.78c-2.439,0-3.681,1.836-4.996,3.78
				c-1.403,2.074-2.854,4.22-5.824,4.22s-4.421-2.146-5.824-4.22c-1.315-1.944-2.556-3.78-4.996-3.78
				c-2.44,0-3.682,1.836-4.997,3.78c-1.403,2.074-2.854,4.22-5.825,4.22c-2.971,0-4.422-2.146-5.825-4.22
				c-1.315-1.944-2.557-3.78-4.997-3.78c-2.44,0-3.682,1.836-4.998,3.78c-1.403,2.074-2.854,4.22-5.826,4.22
				c-2.971,0-4.422-2.146-5.825-4.22c-1.315-1.944-2.557-3.78-4.997-3.78c-2.44,0-3.682,1.836-4.996,3.78
				c-1.403,2.074-2.854,4.22-5.824,4.22s-4.421-2.146-5.824-4.22c-1.315-1.944-2.557-3.78-4.996-3.78
				c-2.44,0-3.682,1.836-4.997,3.78c-1.403,2.074-2.854,4.22-5.825,4.22c-2.971,0-4.421-2.146-5.824-4.22
				c-1.315-1.944-2.556-3.78-4.996-3.78c-2.439,0-3.68,1.836-4.995,3.78c-1.403,2.074-2.853,4.22-5.823,4.22
				c-2.97,0-4.421-2.146-5.824-4.22c-1.315-1.944-2.556-3.78-4.996-3.78c-2.439,0-3.68,1.836-4.994,3.78
				c-1.403,2.074-2.853,4.22-5.823,4.22c-2.97,0-4.42-2.146-5.823-4.22c-1.314-1.944-2.556-3.78-4.995-3.78
				c-2.438,0-3.679,1.836-4.994,3.78c-1.402,2.074-2.853,4.22-5.822,4.22c-2.97,0-4.421-2.146-5.824-4.22
				c-1.315-1.944-2.556-3.78-4.996-3.78v-1c2.971,0,4.421,2.146,5.824,4.22c1.315,1.944,2.556,3.78,4.996,3.78
				c2.438,0,3.679-1.836,4.994-3.78c1.402-2.074,2.853-4.22,5.822-4.22c2.97,0,4.42,2.146,5.823,4.22
				c1.314,1.944,2.556,3.78,4.995,3.78c2.439,0,3.68-1.836,4.994-3.78c1.403-2.074,2.853-4.22,5.823-4.22
				c2.97,0,4.421,2.146,5.824,4.22c1.315,1.944,2.556,3.78,4.996,3.78c2.439,0,3.68-1.836,4.994-3.78
				c1.403-2.074,2.853-4.22,5.823-4.22c2.971,0,4.421,2.146,5.824,4.22c1.315,1.944,2.556,3.78,4.996,3.78
				c2.44,0,3.682-1.836,4.997-3.78c1.403-2.074,2.854-4.22,5.825-4.22c2.971,0,4.421,2.146,5.824,4.22
				c1.315,1.944,2.556,3.78,4.996,3.78s3.681-1.836,4.996-3.78c1.403-2.074,2.854-4.22,5.825-4.22c2.971,0,4.422,2.146,5.825,4.22
				c1.315,1.944,2.557,3.78,4.997,3.78c2.44,0,3.683-1.836,4.998-3.78c1.403-2.074,2.854-4.22,5.826-4.22
				c2.971,0,4.422,2.146,5.825,4.22c1.315,1.944,2.557,3.78,4.997,3.78c2.44,0,3.682-1.836,4.997-3.78
				c1.403-2.074,2.854-4.22,5.825-4.22c2.97,0,4.421,2.146,5.824,4.22c1.314,1.944,2.556,3.78,4.996,3.78
				c2.44,0,3.681-1.836,4.996-3.78c1.403-2.074,2.854-4.22,5.824-4.22c2.971,0,4.422,2.146,5.825,4.22
				c1.315,1.944,2.557,3.78,4.998,3.78c2.441,0,3.684-1.836,4.999-3.78c1.404-2.074,2.855-4.22,5.827-4.22
				c2.971,0,4.422,2.146,5.826,4.22c1.315,1.944,2.557,3.78,4.998,3.78c2.442,0,3.686-1.836,5.001-3.78
				c1.404-2.074,2.856-4.22,5.829-4.22s4.425,2.146,5.829,4.22c1.316,1.944,2.559,3.78,5.001,3.78V143.676z"/>
			<path fill="#33CCCC" d="M227.254,134.697c-2.973,0-4.425-2.146-5.829-4.22c-1.316-1.944-2.559-3.78-5.001-3.78
				s-3.685,1.836-5.001,3.78c-1.404,2.074-2.856,4.22-5.83,4.22c-2.971,0-4.422-2.146-5.826-4.22
				c-1.315-1.944-2.557-3.78-4.998-3.78c-2.441,0-3.684,1.836-4.999,3.78c-1.404,2.074-2.855,4.22-5.827,4.22
				c-2.971,0-4.422-2.146-5.826-4.22c-1.315-1.944-2.557-3.78-4.997-3.78c-2.439,0-3.681,1.836-4.996,3.78
				c-1.403,2.074-2.854,4.22-5.824,4.22s-4.421-2.146-5.824-4.22c-1.315-1.944-2.556-3.78-4.996-3.78
				c-2.44,0-3.682,1.836-4.997,3.78c-1.403,2.074-2.854,4.22-5.825,4.22c-2.971,0-4.422-2.146-5.825-4.22
				c-1.315-1.944-2.557-3.78-4.997-3.78c-2.44,0-3.682,1.836-4.998,3.78c-1.403,2.074-2.854,4.22-5.826,4.22
				c-2.971,0-4.422-2.146-5.825-4.22c-1.315-1.944-2.557-3.78-4.997-3.78c-2.44,0-3.682,1.836-4.996,3.78
				c-1.403,2.074-2.854,4.22-5.824,4.22s-4.421-2.146-5.824-4.22c-1.315-1.944-2.557-3.78-4.996-3.78
				c-2.44,0-3.682,1.836-4.997,3.78c-1.403,2.074-2.854,4.22-5.825,4.22c-2.971,0-4.421-2.146-5.824-4.22
				c-1.315-1.944-2.556-3.78-4.996-3.78c-2.439,0-3.68,1.836-4.995,3.78c-1.403,2.074-2.853,4.22-5.823,4.22
				c-2.97,0-4.421-2.146-5.824-4.22c-1.315-1.944-2.556-3.78-4.996-3.78c-2.439,0-3.68,1.836-4.994,3.78
				c-1.403,2.074-2.853,4.22-5.823,4.22c-2.97,0-4.42-2.146-5.823-4.22c-1.314-1.944-2.556-3.78-4.995-3.78
				c-2.438,0-3.679,1.836-4.994,3.78c-1.402,2.074-2.853,4.22-5.822,4.22c-2.97,0-4.421-2.146-5.824-4.22
				c-1.315-1.944-2.556-3.78-4.996-3.78v-1c2.971,0,4.421,2.146,5.824,4.22c1.315,1.944,2.556,3.78,4.996,3.78
				c2.438,0,3.679-1.836,4.994-3.78c1.402-2.074,2.853-4.22,5.822-4.22c2.97,0,4.42,2.146,5.823,4.22
				c1.314,1.944,2.556,3.78,4.995,3.78c2.439,0,3.68-1.836,4.994-3.78c1.403-2.074,2.853-4.22,5.823-4.22
				c2.97,0,4.421,2.146,5.824,4.22c1.315,1.944,2.556,3.78,4.996,3.78c2.439,0,3.68-1.836,4.994-3.78
				c1.403-2.074,2.853-4.22,5.823-4.22c2.971,0,4.421,2.146,5.824,4.22c1.315,1.944,2.556,3.78,4.996,3.78
				c2.44,0,3.682-1.836,4.997-3.78c1.403-2.074,2.854-4.22,5.825-4.22c2.971,0,4.421,2.146,5.824,4.22
				c1.315,1.944,2.556,3.78,4.996,3.78s3.681-1.836,4.996-3.78c1.403-2.074,2.854-4.22,5.825-4.22c2.971,0,4.422,2.146,5.825,4.22
				c1.315,1.944,2.557,3.78,4.997,3.78c2.44,0,3.683-1.836,4.998-3.78c1.403-2.074,2.854-4.22,5.826-4.22
				c2.971,0,4.422,2.146,5.825,4.22c1.315,1.944,2.557,3.78,4.997,3.78c2.44,0,3.682-1.836,4.997-3.78
				c1.403-2.074,2.854-4.22,5.825-4.22c2.97,0,4.421,2.146,5.824,4.22c1.314,1.944,2.556,3.78,4.996,3.78
				c2.44,0,3.681-1.836,4.996-3.78c1.403-2.074,2.854-4.22,5.824-4.22c2.971,0,4.422,2.146,5.825,4.22
				c1.315,1.944,2.557,3.78,4.998,3.78c2.441,0,3.684-1.836,4.999-3.78c1.404-2.074,2.855-4.22,5.827-4.22
				c2.971,0,4.422,2.146,5.826,4.22c1.315,1.944,2.557,3.78,4.998,3.78c2.442,0,3.686-1.836,5.001-3.78
				c1.404-2.074,2.856-4.22,5.829-4.22s4.425,2.146,5.829,4.22c1.316,1.944,2.559,3.78,5.001,3.78V134.697z"/>
			<path fill="#33CCCC" d="M227.254,125.719c-2.973,0-4.425-2.146-5.829-4.22c-1.316-1.944-2.559-3.78-5.001-3.78
				s-3.685,1.836-5.001,3.78c-1.404,2.074-2.856,4.22-5.83,4.22c-2.971,0-4.422-2.146-5.826-4.22
				c-1.315-1.944-2.557-3.78-4.998-3.78c-2.441,0-3.684,1.836-4.999,3.78c-1.404,2.074-2.855,4.22-5.827,4.22
				c-2.971,0-4.422-2.146-5.826-4.22c-1.315-1.944-2.557-3.78-4.997-3.78c-2.439,0-3.681,1.836-4.996,3.78
				c-1.403,2.074-2.854,4.22-5.824,4.22s-4.421-2.146-5.824-4.22c-1.315-1.944-2.556-3.78-4.996-3.78
				c-2.44,0-3.682,1.836-4.997,3.78c-1.403,2.074-2.854,4.22-5.825,4.22c-2.971,0-4.422-2.146-5.825-4.22
				c-1.315-1.944-2.557-3.78-4.997-3.78c-2.44,0-3.682,1.836-4.998,3.78c-1.403,2.074-2.854,4.22-5.826,4.22
				c-2.971,0-4.422-2.146-5.825-4.22c-1.315-1.944-2.557-3.78-4.997-3.78c-2.44,0-3.682,1.836-4.996,3.78
				c-1.403,2.074-2.854,4.22-5.824,4.22s-4.421-2.146-5.824-4.22c-1.315-1.944-2.557-3.78-4.996-3.78
				c-2.44,0-3.682,1.836-4.997,3.78c-1.403,2.074-2.854,4.22-5.825,4.22c-2.971,0-4.421-2.146-5.824-4.22
				c-1.315-1.944-2.556-3.78-4.996-3.78c-2.439,0-3.68,1.836-4.995,3.78c-1.403,2.074-2.853,4.22-5.823,4.22
				c-2.97,0-4.421-2.146-5.824-4.22c-1.315-1.944-2.556-3.78-4.996-3.78c-2.439,0-3.68,1.836-4.994,3.78
				c-1.403,2.074-2.853,4.22-5.823,4.22c-2.97,0-4.42-2.146-5.823-4.22c-1.314-1.944-2.556-3.78-4.995-3.78
				c-2.438,0-3.679,1.836-4.994,3.78c-1.402,2.074-2.853,4.22-5.822,4.22c-2.97,0-4.421-2.146-5.824-4.22
				c-1.315-1.944-2.556-3.78-4.996-3.78v-1c2.971,0,4.421,2.146,5.824,4.22c1.315,1.944,2.556,3.78,4.996,3.78
				c2.438,0,3.679-1.836,4.994-3.78c1.402-2.074,2.853-4.22,5.822-4.22c2.97,0,4.42,2.146,5.823,4.22
				c1.314,1.944,2.556,3.78,4.995,3.78c2.439,0,3.68-1.836,4.994-3.78c1.403-2.074,2.853-4.22,5.823-4.22
				c2.97,0,4.421,2.146,5.824,4.22c1.315,1.944,2.556,3.78,4.996,3.78c2.439,0,3.68-1.836,4.994-3.78
				c1.403-2.074,2.853-4.22,5.823-4.22c2.971,0,4.421,2.146,5.824,4.22c1.315,1.944,2.556,3.78,4.996,3.78
				c2.44,0,3.682-1.836,4.997-3.78c1.403-2.074,2.854-4.22,5.825-4.22c2.971,0,4.421,2.146,5.824,4.22
				c1.315,1.944,2.556,3.78,4.996,3.78s3.681-1.836,4.996-3.78c1.403-2.074,2.854-4.22,5.825-4.22c2.971,0,4.422,2.146,5.825,4.22
				c1.315,1.944,2.557,3.78,4.997,3.78c2.44,0,3.683-1.836,4.998-3.78c1.403-2.074,2.854-4.22,5.826-4.22
				c2.971,0,4.422,2.146,5.825,4.22c1.315,1.944,2.557,3.78,4.997,3.78c2.44,0,3.682-1.836,4.997-3.78
				c1.403-2.074,2.854-4.22,5.825-4.22c2.97,0,4.421,2.146,5.824,4.22c1.314,1.944,2.556,3.78,4.996,3.78
				c2.44,0,3.681-1.836,4.996-3.78c1.403-2.074,2.854-4.22,5.824-4.22c2.971,0,4.422,2.146,5.825,4.22
				c1.315,1.944,2.557,3.78,4.998,3.78c2.441,0,3.684-1.836,4.999-3.78c1.404-2.074,2.855-4.22,5.827-4.22
				c2.971,0,4.422,2.146,5.826,4.22c1.315,1.944,2.557,3.78,4.998,3.78c2.442,0,3.686-1.836,5.001-3.78
				c1.404-2.074,2.856-4.22,5.829-4.22s4.425,2.146,5.829,4.22c1.316,1.944,2.559,3.78,5.001,3.78V125.719z"/>
			<path fill="#33CCCC" d="M227.254,116.741c-2.973,0-4.425-2.146-5.829-4.22c-1.316-1.944-2.559-3.78-5.001-3.78
				s-3.685,1.836-5.001,3.78c-1.404,2.074-2.856,4.22-5.83,4.22c-2.971,0-4.422-2.146-5.826-4.22
				c-1.315-1.944-2.557-3.78-4.998-3.78c-2.441,0-3.684,1.836-4.999,3.78c-1.404,2.074-2.855,4.22-5.827,4.22
				c-2.971,0-4.422-2.146-5.826-4.22c-1.315-1.944-2.557-3.78-4.997-3.78c-2.439,0-3.681,1.836-4.996,3.78
				c-1.403,2.074-2.854,4.22-5.824,4.22s-4.421-2.146-5.824-4.22c-1.315-1.944-2.556-3.78-4.996-3.78
				c-2.44,0-3.682,1.836-4.997,3.78c-1.403,2.074-2.854,4.22-5.825,4.22c-2.971,0-4.422-2.146-5.825-4.22
				c-1.315-1.944-2.557-3.78-4.997-3.78c-2.44,0-3.682,1.836-4.998,3.78c-1.403,2.074-2.854,4.22-5.826,4.22
				c-2.971,0-4.422-2.146-5.825-4.22c-1.315-1.944-2.557-3.78-4.997-3.78c-2.44,0-3.682,1.836-4.996,3.78
				c-1.403,2.074-2.854,4.22-5.824,4.22s-4.421-2.146-5.824-4.22c-1.315-1.944-2.557-3.78-4.996-3.78
				c-2.44,0-3.682,1.836-4.997,3.78c-1.403,2.074-2.854,4.22-5.825,4.22c-2.971,0-4.421-2.146-5.824-4.22
				c-1.315-1.944-2.556-3.78-4.996-3.78c-2.439,0-3.68,1.836-4.995,3.78c-1.403,2.074-2.853,4.22-5.823,4.22
				c-2.97,0-4.421-2.146-5.824-4.22c-1.315-1.944-2.556-3.78-4.996-3.78c-2.439,0-3.68,1.836-4.994,3.78
				c-1.403,2.074-2.853,4.22-5.823,4.22c-2.97,0-4.42-2.146-5.823-4.22c-1.314-1.944-2.556-3.78-4.995-3.78
				c-2.438,0-3.679,1.836-4.994,3.78c-1.402,2.074-2.853,4.22-5.822,4.22c-2.97,0-4.421-2.146-5.824-4.22
				c-1.315-1.944-2.556-3.78-4.996-3.78v-1c2.971,0,4.421,2.146,5.824,4.22c1.315,1.944,2.556,3.78,4.996,3.78
				c2.438,0,3.679-1.836,4.994-3.78c1.402-2.074,2.853-4.22,5.822-4.22c2.97,0,4.42,2.146,5.823,4.22
				c1.314,1.944,2.556,3.78,4.995,3.78c2.439,0,3.68-1.836,4.994-3.78c1.403-2.074,2.853-4.22,5.823-4.22
				c2.97,0,4.421,2.146,5.824,4.22c1.315,1.944,2.556,3.78,4.996,3.78c2.439,0,3.68-1.836,4.994-3.78
				c1.403-2.074,2.853-4.22,5.823-4.22c2.971,0,4.421,2.146,5.824,4.22c1.315,1.944,2.556,3.78,4.996,3.78
				c2.44,0,3.682-1.836,4.997-3.78c1.403-2.074,2.854-4.22,5.825-4.22c2.971,0,4.421,2.146,5.824,4.22
				c1.315,1.944,2.556,3.78,4.996,3.78s3.681-1.836,4.996-3.78c1.403-2.074,2.854-4.22,5.825-4.22c2.971,0,4.422,2.146,5.825,4.22
				c1.315,1.944,2.557,3.78,4.997,3.78c2.44,0,3.683-1.836,4.998-3.78c1.403-2.074,2.854-4.22,5.826-4.22
				c2.971,0,4.422,2.146,5.825,4.22c1.315,1.944,2.557,3.78,4.997,3.78c2.44,0,3.682-1.836,4.997-3.78
				c1.403-2.074,2.854-4.22,5.825-4.22c2.97,0,4.421,2.146,5.824,4.22c1.314,1.944,2.556,3.78,4.996,3.78
				c2.44,0,3.681-1.836,4.996-3.78c1.403-2.074,2.854-4.22,5.824-4.22c2.971,0,4.422,2.146,5.825,4.22
				c1.315,1.944,2.557,3.78,4.998,3.78c2.441,0,3.684-1.836,4.999-3.78c1.404-2.074,2.855-4.22,5.827-4.22
				c2.971,0,4.422,2.146,5.826,4.22c1.315,1.944,2.557,3.78,4.998,3.78c2.442,0,3.686-1.836,5.001-3.78
				c1.404-2.074,2.856-4.22,5.829-4.22s4.425,2.146,5.829,4.22c1.316,1.944,2.559,3.78,5.001,3.78V116.741z"/>
			<path fill="#33CCCC" d="M227.254,107.762c-2.973,0-4.425-2.146-5.829-4.22c-1.316-1.944-2.559-3.78-5.001-3.78
				s-3.685,1.836-5.001,3.78c-1.404,2.074-2.856,4.22-5.83,4.22c-2.971,0-4.422-2.146-5.826-4.22
				c-1.315-1.944-2.557-3.78-4.998-3.78c-2.441,0-3.684,1.836-4.999,3.78c-1.404,2.074-2.855,4.22-5.827,4.22
				c-2.971,0-4.422-2.146-5.826-4.22c-1.315-1.944-2.557-3.78-4.997-3.78c-2.439,0-3.681,1.836-4.996,3.78
				c-1.403,2.074-2.854,4.22-5.824,4.22s-4.421-2.146-5.824-4.22c-1.315-1.944-2.556-3.78-4.996-3.78
				c-2.44,0-3.682,1.836-4.997,3.78c-1.403,2.074-2.854,4.22-5.825,4.22c-2.971,0-4.422-2.146-5.825-4.22
				c-1.315-1.944-2.557-3.78-4.997-3.78c-2.44,0-3.682,1.836-4.998,3.78c-1.403,2.074-2.854,4.22-5.826,4.22
				c-2.971,0-4.422-2.146-5.825-4.22c-1.315-1.944-2.557-3.78-4.997-3.78c-2.44,0-3.682,1.836-4.996,3.78
				c-1.403,2.074-2.854,4.22-5.824,4.22s-4.421-2.146-5.824-4.22c-1.315-1.944-2.557-3.78-4.996-3.78
				c-2.44,0-3.682,1.836-4.997,3.78c-1.403,2.074-2.854,4.22-5.825,4.22c-2.971,0-4.421-2.146-5.824-4.22
				c-1.315-1.944-2.556-3.78-4.996-3.78c-2.439,0-3.68,1.836-4.995,3.78c-1.403,2.074-2.853,4.22-5.823,4.22
				c-2.97,0-4.421-2.146-5.824-4.22c-1.315-1.944-2.556-3.78-4.996-3.78c-2.439,0-3.68,1.836-4.994,3.78
				c-1.403,2.074-2.853,4.22-5.823,4.22c-2.97,0-4.42-2.146-5.823-4.22c-1.314-1.944-2.556-3.78-4.995-3.78
				c-2.438,0-3.679,1.836-4.994,3.78c-1.402,2.074-2.853,4.22-5.822,4.22c-2.97,0-4.421-2.146-5.824-4.22
				c-1.315-1.944-2.556-3.78-4.996-3.78v-1c2.971,0,4.421,2.146,5.824,4.22c1.315,1.944,2.556,3.78,4.996,3.78
				c2.438,0,3.679-1.836,4.994-3.78c1.402-2.074,2.853-4.22,5.822-4.22c2.97,0,4.42,2.146,5.823,4.22
				c1.314,1.944,2.556,3.78,4.995,3.78c2.439,0,3.68-1.836,4.994-3.78c1.403-2.074,2.853-4.22,5.823-4.22
				c2.97,0,4.421,2.146,5.824,4.22c1.315,1.944,2.556,3.78,4.996,3.78c2.439,0,3.68-1.836,4.994-3.78
				c1.403-2.074,2.853-4.22,5.823-4.22c2.971,0,4.421,2.146,5.824,4.22c1.315,1.944,2.556,3.78,4.996,3.78
				c2.44,0,3.682-1.836,4.997-3.78c1.403-2.074,2.854-4.22,5.825-4.22c2.971,0,4.421,2.146,5.824,4.22
				c1.315,1.944,2.556,3.78,4.996,3.78s3.681-1.836,4.996-3.78c1.403-2.074,2.854-4.22,5.825-4.22c2.971,0,4.422,2.146,5.825,4.22
				c1.315,1.944,2.557,3.78,4.997,3.78c2.44,0,3.683-1.836,4.998-3.78c1.403-2.074,2.854-4.22,5.826-4.22
				c2.971,0,4.422,2.146,5.825,4.22c1.315,1.944,2.557,3.78,4.997,3.78c2.44,0,3.682-1.836,4.997-3.78
				c1.403-2.074,2.854-4.22,5.825-4.22c2.97,0,4.421,2.146,5.824,4.22c1.314,1.944,2.556,3.78,4.996,3.78
				c2.44,0,3.681-1.836,4.996-3.78c1.403-2.074,2.854-4.22,5.824-4.22c2.971,0,4.422,2.146,5.825,4.22
				c1.315,1.944,2.557,3.78,4.998,3.78c2.441,0,3.684-1.836,4.999-3.78c1.404-2.074,2.855-4.22,5.827-4.22
				c2.971,0,4.422,2.146,5.826,4.22c1.315,1.944,2.557,3.78,4.998,3.78c2.442,0,3.686-1.836,5.001-3.78
				c1.404-2.074,2.856-4.22,5.829-4.22s4.425,2.146,5.829,4.22c1.316,1.944,2.559,3.78,5.001,3.78V107.762z"/>
			<path fill="#33CCCC" d="M227.254,98.784c-2.973,0-4.425-2.146-5.829-4.22c-1.316-1.944-2.559-3.78-5.001-3.78
				s-3.685,1.836-5.001,3.78c-1.404,2.074-2.856,4.22-5.83,4.22c-2.971,0-4.422-2.146-5.826-4.22
				c-1.315-1.944-2.557-3.78-4.998-3.78c-2.441,0-3.684,1.836-4.999,3.78c-1.404,2.074-2.855,4.22-5.827,4.22
				c-2.971,0-4.422-2.146-5.826-4.22c-1.315-1.944-2.557-3.78-4.997-3.78c-2.439,0-3.681,1.836-4.996,3.78
				c-1.403,2.074-2.854,4.22-5.824,4.22s-4.421-2.146-5.824-4.22c-1.315-1.944-2.556-3.78-4.996-3.78
				c-2.44,0-3.682,1.836-4.997,3.78c-1.403,2.074-2.854,4.22-5.825,4.22c-2.971,0-4.422-2.146-5.825-4.22
				c-1.315-1.944-2.557-3.78-4.997-3.78c-2.44,0-3.682,1.836-4.998,3.78c-1.403,2.074-2.854,4.22-5.826,4.22
				c-2.971,0-4.422-2.146-5.825-4.22c-1.315-1.944-2.557-3.78-4.997-3.78c-2.44,0-3.682,1.836-4.996,3.78
				c-1.403,2.074-2.854,4.22-5.824,4.22s-4.421-2.146-5.824-4.22c-1.315-1.944-2.557-3.78-4.996-3.78
				c-2.44,0-3.682,1.836-4.997,3.78c-1.403,2.074-2.854,4.22-5.825,4.22c-2.971,0-4.421-2.146-5.824-4.22
				c-1.315-1.944-2.556-3.78-4.996-3.78c-2.439,0-3.68,1.836-4.995,3.78c-1.403,2.074-2.853,4.22-5.823,4.22
				c-2.97,0-4.421-2.146-5.824-4.22c-1.315-1.944-2.556-3.78-4.996-3.78c-2.439,0-3.68,1.836-4.994,3.78
				c-1.403,2.074-2.853,4.22-5.823,4.22c-2.97,0-4.42-2.146-5.823-4.22c-1.314-1.944-2.556-3.78-4.995-3.78
				c-2.438,0-3.679,1.836-4.994,3.78c-1.402,2.074-2.853,4.22-5.822,4.22c-2.97,0-4.421-2.146-5.824-4.22
				C3.681,92.62,2.44,90.784,0,90.784v-1c2.971,0,4.421,2.146,5.824,4.22c1.315,1.944,2.556,3.78,4.996,3.78
				c2.438,0,3.679-1.836,4.994-3.78c1.402-2.074,2.853-4.22,5.822-4.22c2.97,0,4.42,2.146,5.823,4.22
				c1.314,1.944,2.556,3.78,4.995,3.78c2.439,0,3.68-1.836,4.994-3.78c1.403-2.074,2.853-4.22,5.823-4.22
				c2.97,0,4.421,2.146,5.824,4.22c1.315,1.944,2.556,3.78,4.996,3.78c2.439,0,3.68-1.836,4.994-3.78
				c1.403-2.074,2.853-4.22,5.823-4.22c2.971,0,4.421,2.146,5.824,4.22c1.315,1.944,2.556,3.78,4.996,3.78
				c2.44,0,3.682-1.836,4.997-3.78c1.403-2.074,2.854-4.22,5.825-4.22c2.971,0,4.421,2.146,5.824,4.22
				c1.315,1.944,2.556,3.78,4.996,3.78s3.681-1.836,4.996-3.78c1.403-2.074,2.854-4.22,5.825-4.22c2.971,0,4.422,2.146,5.825,4.22
				c1.315,1.944,2.557,3.78,4.997,3.78c2.44,0,3.683-1.836,4.998-3.78c1.403-2.074,2.854-4.22,5.826-4.22
				c2.971,0,4.422,2.146,5.825,4.22c1.315,1.944,2.557,3.78,4.997,3.78c2.44,0,3.682-1.836,4.997-3.78
				c1.403-2.074,2.854-4.22,5.825-4.22c2.97,0,4.421,2.146,5.824,4.22c1.314,1.944,2.556,3.78,4.996,3.78
				c2.44,0,3.681-1.836,4.996-3.78c1.403-2.074,2.854-4.22,5.824-4.22c2.971,0,4.422,2.146,5.825,4.22
				c1.315,1.944,2.557,3.78,4.998,3.78c2.441,0,3.684-1.836,4.999-3.78c1.404-2.074,2.855-4.22,5.827-4.22
				c2.971,0,4.422,2.146,5.826,4.22c1.315,1.944,2.557,3.78,4.998,3.78c2.442,0,3.686-1.836,5.001-3.78
				c1.404-2.074,2.856-4.22,5.829-4.22s4.425,2.146,5.829,4.22c1.316,1.944,2.559,3.78,5.001,3.78V98.784z"/>
			<path fill="#33CCCC" d="M227.254,89.805c-2.973,0-4.425-2.146-5.829-4.22c-1.316-1.944-2.559-3.78-5.001-3.78
				s-3.685,1.836-5.001,3.78c-1.404,2.074-2.856,4.22-5.83,4.22c-2.971,0-4.422-2.146-5.826-4.22
				c-1.315-1.944-2.557-3.78-4.998-3.78c-2.441,0-3.684,1.836-4.999,3.78c-1.404,2.074-2.855,4.22-5.827,4.22
				c-2.971,0-4.422-2.146-5.826-4.22c-1.315-1.944-2.557-3.78-4.997-3.78c-2.439,0-3.681,1.836-4.996,3.78
				c-1.403,2.074-2.854,4.22-5.824,4.22s-4.421-2.146-5.824-4.22c-1.315-1.944-2.556-3.78-4.996-3.78
				c-2.44,0-3.682,1.836-4.997,3.78c-1.403,2.074-2.854,4.22-5.825,4.22c-2.971,0-4.422-2.146-5.825-4.22
				c-1.315-1.944-2.557-3.78-4.997-3.78c-2.44,0-3.682,1.836-4.998,3.78c-1.403,2.074-2.854,4.22-5.826,4.22
				c-2.971,0-4.422-2.146-5.825-4.22c-1.315-1.944-2.557-3.78-4.997-3.78c-2.44,0-3.682,1.836-4.996,3.78
				c-1.403,2.074-2.854,4.22-5.824,4.22s-4.421-2.146-5.824-4.22c-1.315-1.944-2.557-3.78-4.996-3.78
				c-2.44,0-3.682,1.836-4.997,3.78c-1.403,2.074-2.854,4.22-5.825,4.22c-2.971,0-4.421-2.146-5.824-4.22
				c-1.315-1.944-2.556-3.78-4.996-3.78c-2.439,0-3.68,1.836-4.995,3.78c-1.403,2.074-2.853,4.22-5.823,4.22
				c-2.97,0-4.421-2.146-5.824-4.22c-1.315-1.944-2.556-3.78-4.996-3.78c-2.439,0-3.68,1.836-4.994,3.78
				c-1.403,2.074-2.853,4.22-5.823,4.22c-2.97,0-4.42-2.146-5.823-4.22c-1.314-1.944-2.556-3.78-4.995-3.78
				c-2.438,0-3.679,1.836-4.994,3.78c-1.402,2.074-2.853,4.22-5.822,4.22c-2.97,0-4.421-2.146-5.824-4.22
				C3.681,83.641,2.44,81.805,0,81.805v-1c2.971,0,4.421,2.146,5.824,4.22c1.315,1.944,2.556,3.78,4.996,3.78
				c2.438,0,3.679-1.836,4.994-3.78c1.402-2.074,2.853-4.22,5.822-4.22c2.97,0,4.42,2.146,5.823,4.22
				c1.314,1.944,2.556,3.78,4.995,3.78c2.439,0,3.68-1.836,4.994-3.78c1.403-2.074,2.853-4.22,5.823-4.22
				c2.97,0,4.421,2.146,5.824,4.22c1.315,1.944,2.556,3.78,4.996,3.78c2.439,0,3.68-1.836,4.994-3.78
				c1.403-2.074,2.853-4.22,5.823-4.22c2.971,0,4.421,2.146,5.824,4.22c1.315,1.944,2.556,3.78,4.996,3.78
				c2.44,0,3.682-1.836,4.997-3.78c1.403-2.074,2.854-4.22,5.825-4.22c2.971,0,4.421,2.146,5.824,4.22
				c1.315,1.944,2.556,3.78,4.996,3.78s3.681-1.836,4.996-3.78c1.403-2.074,2.854-4.22,5.825-4.22c2.971,0,4.422,2.146,5.825,4.22
				c1.315,1.944,2.557,3.78,4.997,3.78c2.44,0,3.683-1.836,4.998-3.78c1.403-2.074,2.854-4.22,5.826-4.22
				c2.971,0,4.422,2.146,5.825,4.22c1.315,1.944,2.557,3.78,4.997,3.78c2.44,0,3.682-1.836,4.997-3.78
				c1.403-2.074,2.854-4.22,5.825-4.22c2.97,0,4.421,2.146,5.824,4.22c1.314,1.944,2.556,3.78,4.996,3.78
				c2.44,0,3.681-1.836,4.996-3.78c1.403-2.074,2.854-4.22,5.824-4.22c2.971,0,4.422,2.146,5.825,4.22
				c1.315,1.944,2.557,3.78,4.998,3.78c2.441,0,3.684-1.836,4.999-3.78c1.404-2.074,2.855-4.22,5.827-4.22
				c2.971,0,4.422,2.146,5.826,4.22c1.315,1.944,2.557,3.78,4.998,3.78c2.442,0,3.686-1.836,5.001-3.78
				c1.404-2.074,2.856-4.22,5.829-4.22s4.425,2.146,5.829,4.22c1.316,1.944,2.559,3.78,5.001,3.78V89.805z"/>
			<path fill="#33CCCC" d="M227.254,80.827c-2.973,0-4.425-2.146-5.829-4.22c-1.316-1.944-2.559-3.78-5.001-3.78
				s-3.685,1.836-5.001,3.78c-1.404,2.074-2.856,4.22-5.83,4.22c-2.971,0-4.422-2.146-5.826-4.22
				c-1.315-1.944-2.557-3.78-4.998-3.78c-2.441,0-3.684,1.836-4.999,3.78c-1.404,2.074-2.855,4.22-5.827,4.22
				c-2.971,0-4.422-2.146-5.826-4.22c-1.315-1.944-2.557-3.78-4.997-3.78c-2.439,0-3.681,1.836-4.996,3.78
				c-1.403,2.074-2.854,4.22-5.824,4.22s-4.421-2.146-5.824-4.22c-1.315-1.944-2.556-3.78-4.996-3.78
				c-2.44,0-3.682,1.836-4.997,3.78c-1.403,2.074-2.854,4.22-5.825,4.22c-2.971,0-4.422-2.146-5.825-4.22
				c-1.315-1.944-2.557-3.78-4.997-3.78c-2.44,0-3.682,1.836-4.998,3.78c-1.403,2.074-2.854,4.22-5.826,4.22
				c-2.971,0-4.422-2.146-5.825-4.22c-1.315-1.944-2.557-3.78-4.997-3.78c-2.44,0-3.682,1.836-4.996,3.78
				c-1.403,2.074-2.854,4.22-5.824,4.22s-4.421-2.146-5.824-4.22c-1.315-1.944-2.557-3.78-4.996-3.78
				c-2.44,0-3.682,1.836-4.997,3.78c-1.403,2.074-2.854,4.22-5.825,4.22c-2.971,0-4.421-2.146-5.824-4.22
				c-1.315-1.944-2.556-3.78-4.996-3.78c-2.439,0-3.68,1.836-4.995,3.78c-1.403,2.074-2.853,4.22-5.823,4.22
				c-2.97,0-4.421-2.146-5.824-4.22c-1.315-1.944-2.556-3.78-4.996-3.78c-2.439,0-3.68,1.836-4.994,3.78
				c-1.403,2.074-2.853,4.22-5.823,4.22c-2.97,0-4.42-2.146-5.823-4.22c-1.314-1.944-2.556-3.78-4.995-3.78
				c-2.438,0-3.679,1.836-4.994,3.78c-1.402,2.074-2.853,4.22-5.822,4.22c-2.97,0-4.421-2.146-5.824-4.22
				C3.681,74.663,2.44,72.827,0,72.827v-1c2.971,0,4.421,2.146,5.824,4.22c1.315,1.944,2.556,3.78,4.996,3.78
				c2.438,0,3.679-1.836,4.994-3.78c1.402-2.074,2.853-4.22,5.822-4.22c2.97,0,4.42,2.146,5.823,4.22
				c1.314,1.944,2.556,3.78,4.995,3.78c2.439,0,3.68-1.836,4.994-3.78c1.403-2.074,2.853-4.22,5.823-4.22
				c2.97,0,4.421,2.146,5.824,4.22c1.315,1.944,2.556,3.78,4.996,3.78c2.439,0,3.68-1.836,4.994-3.78
				c1.403-2.074,2.853-4.22,5.823-4.22c2.971,0,4.421,2.146,5.824,4.22c1.315,1.944,2.556,3.78,4.996,3.78
				c2.44,0,3.682-1.836,4.997-3.78c1.403-2.074,2.854-4.22,5.825-4.22c2.971,0,4.421,2.146,5.824,4.22
				c1.315,1.944,2.556,3.78,4.996,3.78s3.681-1.836,4.996-3.78c1.403-2.074,2.854-4.22,5.825-4.22c2.971,0,4.422,2.146,5.825,4.22
				c1.315,1.944,2.557,3.78,4.997,3.78c2.44,0,3.683-1.836,4.998-3.78c1.403-2.074,2.854-4.22,5.826-4.22
				c2.971,0,4.422,2.146,5.825,4.22c1.315,1.944,2.557,3.78,4.997,3.78c2.44,0,3.682-1.836,4.997-3.78
				c1.403-2.074,2.854-4.22,5.825-4.22c2.97,0,4.421,2.146,5.824,4.22c1.314,1.944,2.556,3.78,4.996,3.78
				c2.44,0,3.681-1.836,4.996-3.78c1.403-2.074,2.854-4.22,5.824-4.22c2.971,0,4.422,2.146,5.825,4.22
				c1.315,1.944,2.557,3.78,4.998,3.78c2.441,0,3.684-1.836,4.999-3.78c1.404-2.074,2.855-4.22,5.827-4.22
				c2.971,0,4.422,2.146,5.826,4.22c1.315,1.944,2.557,3.78,4.998,3.78c2.442,0,3.686-1.836,5.001-3.78
				c1.404-2.074,2.856-4.22,5.829-4.22s4.425,2.146,5.829,4.22c1.316,1.944,2.559,3.78,5.001,3.78V80.827z"/>
			<path fill="#33CCCC" d="M227.254,71.849c-2.973,0-4.425-2.146-5.829-4.22c-1.316-1.944-2.559-3.78-5.001-3.78
				s-3.685,1.836-5.001,3.78c-1.404,2.074-2.856,4.22-5.83,4.22c-2.971,0-4.422-2.146-5.826-4.22
				c-1.315-1.944-2.557-3.78-4.998-3.78c-2.441,0-3.684,1.836-4.999,3.78c-1.404,2.074-2.855,4.22-5.827,4.22
				c-2.971,0-4.422-2.146-5.826-4.22c-1.315-1.944-2.557-3.78-4.997-3.78c-2.439,0-3.681,1.836-4.996,3.78
				c-1.403,2.074-2.854,4.22-5.824,4.22s-4.421-2.146-5.824-4.22c-1.315-1.944-2.556-3.78-4.996-3.78
				c-2.44,0-3.682,1.836-4.997,3.78c-1.403,2.074-2.854,4.22-5.825,4.22c-2.971,0-4.422-2.146-5.825-4.22
				c-1.315-1.944-2.557-3.78-4.997-3.78c-2.44,0-3.682,1.836-4.998,3.78c-1.403,2.074-2.854,4.22-5.826,4.22
				c-2.971,0-4.422-2.146-5.825-4.22c-1.315-1.944-2.557-3.78-4.997-3.78c-2.44,0-3.682,1.836-4.996,3.78
				c-1.403,2.074-2.854,4.22-5.824,4.22s-4.421-2.146-5.824-4.22c-1.315-1.944-2.557-3.78-4.996-3.78
				c-2.44,0-3.682,1.836-4.997,3.78c-1.403,2.074-2.854,4.22-5.825,4.22c-2.971,0-4.421-2.146-5.824-4.22
				c-1.315-1.944-2.556-3.78-4.996-3.78c-2.439,0-3.68,1.836-4.995,3.78c-1.403,2.074-2.853,4.22-5.823,4.22
				c-2.97,0-4.421-2.146-5.824-4.22c-1.315-1.944-2.556-3.78-4.996-3.78c-2.439,0-3.68,1.836-4.994,3.78
				c-1.403,2.074-2.853,4.22-5.823,4.22c-2.97,0-4.42-2.146-5.823-4.22c-1.314-1.944-2.556-3.78-4.995-3.78
				c-2.438,0-3.679,1.836-4.994,3.78c-1.402,2.074-2.853,4.22-5.822,4.22c-2.97,0-4.421-2.146-5.824-4.22
				C3.681,65.685,2.44,63.849,0,63.849v-1c2.971,0,4.421,2.146,5.824,4.22c1.315,1.944,2.556,3.78,4.996,3.78
				c2.438,0,3.679-1.836,4.994-3.78c1.402-2.074,2.853-4.22,5.822-4.22c2.97,0,4.42,2.146,5.823,4.22
				c1.314,1.944,2.556,3.78,4.995,3.78c2.439,0,3.68-1.836,4.994-3.78c1.403-2.074,2.853-4.22,5.823-4.22
				c2.97,0,4.421,2.146,5.824,4.22c1.315,1.944,2.556,3.78,4.996,3.78c2.439,0,3.68-1.836,4.994-3.78
				c1.403-2.074,2.853-4.22,5.823-4.22c2.971,0,4.421,2.146,5.824,4.22c1.315,1.944,2.556,3.78,4.996,3.78
				c2.44,0,3.682-1.836,4.997-3.78c1.403-2.074,2.854-4.22,5.825-4.22c2.971,0,4.421,2.146,5.824,4.22
				c1.315,1.944,2.556,3.78,4.996,3.78s3.681-1.836,4.996-3.78c1.403-2.074,2.854-4.22,5.825-4.22c2.971,0,4.422,2.146,5.825,4.22
				c1.315,1.944,2.557,3.78,4.997,3.78c2.44,0,3.683-1.836,4.998-3.78c1.403-2.074,2.854-4.22,5.826-4.22
				c2.971,0,4.422,2.146,5.825,4.22c1.315,1.944,2.557,3.78,4.997,3.78c2.44,0,3.682-1.836,4.997-3.78
				c1.403-2.074,2.854-4.22,5.825-4.22c2.97,0,4.421,2.146,5.824,4.22c1.314,1.944,2.556,3.78,4.996,3.78
				c2.44,0,3.681-1.836,4.996-3.78c1.403-2.074,2.854-4.22,5.824-4.22c2.971,0,4.422,2.146,5.825,4.22
				c1.315,1.944,2.557,3.78,4.998,3.78c2.441,0,3.684-1.836,4.999-3.78c1.404-2.074,2.855-4.22,5.827-4.22
				c2.971,0,4.422,2.146,5.826,4.22c1.315,1.944,2.557,3.78,4.998,3.78c2.442,0,3.686-1.836,5.001-3.78
				c1.404-2.074,2.856-4.22,5.829-4.22s4.425,2.146,5.829,4.22c1.316,1.944,2.559,3.78,5.001,3.78V71.849z"/>
			<path fill="#33CCCC" d="M227.254,62.87c-2.973,0-4.425-2.146-5.829-4.22c-1.316-1.944-2.559-3.78-5.001-3.78
				s-3.685,1.836-5.001,3.78c-1.404,2.074-2.856,4.22-5.83,4.22c-2.971,0-4.422-2.146-5.826-4.22
				c-1.315-1.944-2.557-3.78-4.998-3.78c-2.441,0-3.684,1.836-4.999,3.78c-1.404,2.074-2.855,4.22-5.827,4.22
				c-2.971,0-4.422-2.146-5.826-4.22c-1.315-1.944-2.557-3.78-4.997-3.78c-2.439,0-3.681,1.836-4.996,3.78
				c-1.403,2.074-2.854,4.22-5.824,4.22s-4.421-2.146-5.824-4.22c-1.315-1.944-2.556-3.78-4.996-3.78
				c-2.44,0-3.682,1.836-4.997,3.78c-1.403,2.074-2.854,4.22-5.825,4.22c-2.971,0-4.422-2.146-5.825-4.22
				c-1.315-1.944-2.557-3.78-4.997-3.78c-2.44,0-3.682,1.836-4.998,3.78c-1.403,2.074-2.854,4.22-5.826,4.22
				c-2.971,0-4.422-2.146-5.825-4.22c-1.315-1.944-2.557-3.78-4.997-3.78c-2.44,0-3.682,1.836-4.996,3.78
				c-1.403,2.074-2.854,4.22-5.824,4.22s-4.421-2.146-5.824-4.22c-1.315-1.944-2.557-3.78-4.996-3.78
				c-2.44,0-3.682,1.836-4.997,3.78c-1.403,2.074-2.854,4.22-5.825,4.22c-2.971,0-4.421-2.146-5.824-4.22
				c-1.315-1.944-2.556-3.78-4.996-3.78c-2.439,0-3.68,1.836-4.995,3.78c-1.403,2.074-2.853,4.22-5.823,4.22
				c-2.97,0-4.421-2.146-5.824-4.22c-1.315-1.944-2.556-3.78-4.996-3.78c-2.439,0-3.68,1.836-4.994,3.78
				c-1.403,2.074-2.853,4.22-5.823,4.22c-2.97,0-4.42-2.146-5.823-4.22c-1.314-1.944-2.556-3.78-4.995-3.78
				c-2.438,0-3.679,1.836-4.994,3.78c-1.402,2.074-2.853,4.22-5.822,4.22c-2.97,0-4.421-2.146-5.824-4.22
				C3.681,56.706,2.44,54.87,0,54.87v-1c2.971,0,4.421,2.146,5.824,4.22c1.315,1.944,2.556,3.78,4.996,3.78
				c2.438,0,3.679-1.836,4.994-3.78c1.402-2.074,2.853-4.22,5.822-4.22c2.97,0,4.42,2.146,5.823,4.22
				c1.314,1.944,2.556,3.78,4.995,3.78c2.439,0,3.68-1.836,4.994-3.78c1.403-2.074,2.853-4.22,5.823-4.22
				c2.97,0,4.421,2.146,5.824,4.22c1.315,1.944,2.556,3.78,4.996,3.78c2.439,0,3.68-1.836,4.994-3.78
				c1.403-2.074,2.853-4.22,5.823-4.22c2.971,0,4.421,2.146,5.824,4.22c1.315,1.944,2.556,3.78,4.996,3.78
				c2.44,0,3.682-1.836,4.997-3.78c1.403-2.074,2.854-4.22,5.825-4.22c2.971,0,4.421,2.146,5.824,4.22
				c1.315,1.944,2.556,3.78,4.996,3.78s3.681-1.836,4.996-3.78c1.403-2.074,2.854-4.22,5.825-4.22c2.971,0,4.422,2.146,5.825,4.22
				c1.315,1.944,2.557,3.78,4.997,3.78c2.44,0,3.683-1.836,4.998-3.78c1.403-2.074,2.854-4.22,5.826-4.22
				c2.971,0,4.422,2.146,5.825,4.22c1.315,1.944,2.557,3.78,4.997,3.78c2.44,0,3.682-1.836,4.997-3.78
				c1.403-2.074,2.854-4.22,5.825-4.22c2.97,0,4.421,2.146,5.824,4.22c1.314,1.944,2.556,3.78,4.996,3.78
				c2.44,0,3.681-1.836,4.996-3.78c1.403-2.074,2.854-4.22,5.824-4.22c2.971,0,4.422,2.146,5.825,4.22
				c1.315,1.944,2.557,3.78,4.998,3.78c2.441,0,3.684-1.836,4.999-3.78c1.404-2.074,2.855-4.22,5.827-4.22
				c2.971,0,4.422,2.146,5.826,4.22c1.315,1.944,2.557,3.78,4.998,3.78c2.442,0,3.686-1.836,5.001-3.78
				c1.404-2.074,2.856-4.22,5.829-4.22s4.425,2.146,5.829,4.22c1.316,1.944,2.559,3.78,5.001,3.78V62.87z"/>
			<path fill="#33CCCC" d="M227.254,53.892c-2.973,0-4.425-2.146-5.829-4.22c-1.316-1.944-2.559-3.78-5.001-3.78
				s-3.685,1.836-5.001,3.78c-1.404,2.074-2.856,4.22-5.83,4.22c-2.971,0-4.422-2.146-5.826-4.22
				c-1.315-1.944-2.557-3.78-4.998-3.78c-2.441,0-3.684,1.836-4.999,3.78c-1.404,2.074-2.855,4.22-5.827,4.22
				c-2.971,0-4.422-2.146-5.826-4.22c-1.315-1.944-2.557-3.78-4.997-3.78c-2.439,0-3.681,1.836-4.996,3.78
				c-1.403,2.074-2.854,4.22-5.824,4.22s-4.421-2.146-5.824-4.22c-1.315-1.944-2.556-3.78-4.996-3.78
				c-2.44,0-3.682,1.836-4.997,3.78c-1.403,2.074-2.854,4.22-5.825,4.22c-2.971,0-4.422-2.146-5.825-4.22
				c-1.315-1.944-2.557-3.78-4.997-3.78c-2.44,0-3.682,1.836-4.998,3.78c-1.403,2.074-2.854,4.22-5.826,4.22
				c-2.971,0-4.422-2.146-5.825-4.22c-1.315-1.944-2.557-3.78-4.997-3.78c-2.44,0-3.682,1.836-4.996,3.78
				c-1.403,2.074-2.854,4.22-5.824,4.22s-4.421-2.146-5.824-4.22c-1.315-1.944-2.557-3.78-4.996-3.78
				c-2.44,0-3.682,1.836-4.997,3.78c-1.403,2.074-2.854,4.22-5.825,4.22c-2.971,0-4.421-2.146-5.824-4.22
				c-1.315-1.944-2.556-3.78-4.996-3.78c-2.439,0-3.68,1.836-4.995,3.78c-1.403,2.074-2.853,4.22-5.823,4.22
				c-2.97,0-4.421-2.146-5.824-4.22c-1.315-1.944-2.556-3.78-4.996-3.78c-2.439,0-3.68,1.836-4.994,3.78
				c-1.403,2.074-2.853,4.22-5.823,4.22c-2.97,0-4.42-2.146-5.823-4.22c-1.314-1.944-2.556-3.78-4.995-3.78
				c-2.438,0-3.679,1.836-4.994,3.78c-1.402,2.074-2.853,4.22-5.822,4.22c-2.97,0-4.421-2.146-5.824-4.22
				C3.681,47.728,2.44,45.892,0,45.892v-1c2.971,0,4.421,2.146,5.824,4.22c1.315,1.944,2.556,3.78,4.996,3.78
				c2.438,0,3.679-1.836,4.994-3.78c1.402-2.074,2.853-4.22,5.822-4.22c2.97,0,4.42,2.146,5.823,4.22
				c1.314,1.944,2.556,3.78,4.995,3.78c2.439,0,3.68-1.836,4.994-3.78c1.403-2.074,2.853-4.22,5.823-4.22
				c2.97,0,4.421,2.146,5.824,4.22c1.315,1.944,2.556,3.78,4.996,3.78c2.439,0,3.68-1.836,4.994-3.78
				c1.403-2.074,2.853-4.22,5.823-4.22c2.971,0,4.421,2.146,5.824,4.22c1.315,1.944,2.556,3.78,4.996,3.78
				c2.44,0,3.682-1.836,4.997-3.78c1.403-2.074,2.854-4.22,5.825-4.22c2.971,0,4.421,2.146,5.824,4.22
				c1.315,1.944,2.556,3.78,4.996,3.78s3.681-1.836,4.996-3.78c1.403-2.074,2.854-4.22,5.825-4.22c2.971,0,4.422,2.146,5.825,4.22
				c1.315,1.944,2.557,3.78,4.997,3.78c2.44,0,3.683-1.836,4.998-3.78c1.403-2.074,2.854-4.22,5.826-4.22
				c2.971,0,4.422,2.146,5.825,4.22c1.315,1.944,2.557,3.78,4.997,3.78c2.44,0,3.682-1.836,4.997-3.78
				c1.403-2.074,2.854-4.22,5.825-4.22c2.97,0,4.421,2.146,5.824,4.22c1.314,1.944,2.556,3.78,4.996,3.78
				c2.44,0,3.681-1.836,4.996-3.78c1.403-2.074,2.854-4.22,5.824-4.22c2.971,0,4.422,2.146,5.825,4.22
				c1.315,1.944,2.557,3.78,4.998,3.78c2.441,0,3.684-1.836,4.999-3.78c1.404-2.074,2.855-4.22,5.827-4.22
				c2.971,0,4.422,2.146,5.826,4.22c1.315,1.944,2.557,3.78,4.998,3.78c2.442,0,3.686-1.836,5.001-3.78
				c1.404-2.074,2.856-4.22,5.829-4.22s4.425,2.146,5.829,4.22c1.316,1.944,2.559,3.78,5.001,3.78V53.892z"/>
			<path fill="#33CCCC" d="M227.254,44.914c-2.973,0-4.425-2.146-5.829-4.22c-1.316-1.944-2.559-3.78-5.001-3.78
				s-3.685,1.836-5.001,3.78c-1.404,2.074-2.856,4.22-5.83,4.22c-2.971,0-4.422-2.146-5.826-4.22
				c-1.315-1.944-2.557-3.78-4.998-3.78c-2.441,0-3.684,1.836-4.999,3.78c-1.404,2.074-2.855,4.22-5.827,4.22
				c-2.971,0-4.422-2.146-5.826-4.22c-1.315-1.944-2.557-3.78-4.997-3.78c-2.439,0-3.681,1.836-4.996,3.78
				c-1.403,2.074-2.854,4.22-5.824,4.22s-4.421-2.146-5.824-4.22c-1.315-1.944-2.556-3.78-4.996-3.78
				c-2.44,0-3.682,1.836-4.997,3.78c-1.403,2.074-2.854,4.22-5.825,4.22c-2.971,0-4.422-2.146-5.825-4.22
				c-1.315-1.944-2.557-3.78-4.997-3.78c-2.44,0-3.682,1.836-4.998,3.78c-1.403,2.074-2.854,4.22-5.826,4.22
				c-2.971,0-4.422-2.146-5.825-4.22c-1.315-1.944-2.557-3.78-4.997-3.78c-2.44,0-3.682,1.836-4.996,3.78
				c-1.403,2.074-2.854,4.22-5.824,4.22s-4.421-2.146-5.824-4.22c-1.315-1.944-2.557-3.78-4.996-3.78
				c-2.44,0-3.682,1.836-4.997,3.78c-1.403,2.074-2.854,4.22-5.825,4.22c-2.971,0-4.421-2.146-5.824-4.22
				c-1.315-1.944-2.556-3.78-4.996-3.78c-2.439,0-3.68,1.836-4.995,3.78c-1.403,2.074-2.853,4.22-5.823,4.22
				c-2.97,0-4.421-2.146-5.824-4.22c-1.315-1.944-2.556-3.78-4.996-3.78c-2.439,0-3.68,1.836-4.994,3.78
				c-1.403,2.074-2.853,4.22-5.823,4.22c-2.97,0-4.42-2.146-5.823-4.22c-1.314-1.944-2.556-3.78-4.995-3.78
				c-2.438,0-3.679,1.836-4.994,3.78c-1.402,2.074-2.853,4.22-5.822,4.22c-2.97,0-4.421-2.146-5.824-4.22
				C3.681,38.749,2.44,36.914,0,36.914v-1c2.971,0,4.421,2.146,5.824,4.22c1.315,1.944,2.556,3.78,4.996,3.78
				c2.438,0,3.679-1.836,4.994-3.78c1.402-2.074,2.853-4.22,5.822-4.22c2.97,0,4.42,2.146,5.823,4.22
				c1.314,1.944,2.556,3.78,4.995,3.78c2.439,0,3.68-1.836,4.994-3.78c1.403-2.074,2.853-4.22,5.823-4.22
				c2.97,0,4.421,2.146,5.824,4.22c1.315,1.944,2.556,3.78,4.996,3.78c2.439,0,3.68-1.836,4.994-3.78
				c1.403-2.074,2.853-4.22,5.823-4.22c2.971,0,4.421,2.146,5.824,4.22c1.315,1.944,2.556,3.78,4.996,3.78
				c2.44,0,3.682-1.836,4.997-3.78c1.403-2.074,2.854-4.22,5.825-4.22c2.971,0,4.421,2.146,5.824,4.22
				c1.315,1.944,2.556,3.78,4.996,3.78s3.681-1.836,4.996-3.78c1.403-2.074,2.854-4.22,5.825-4.22c2.971,0,4.422,2.146,5.825,4.22
				c1.315,1.944,2.557,3.78,4.997,3.78c2.44,0,3.683-1.836,4.998-3.78c1.403-2.074,2.854-4.22,5.826-4.22
				c2.971,0,4.422,2.146,5.825,4.22c1.315,1.944,2.557,3.78,4.997,3.78c2.44,0,3.682-1.836,4.997-3.78
				c1.403-2.074,2.854-4.22,5.825-4.22c2.97,0,4.421,2.146,5.824,4.22c1.314,1.944,2.556,3.78,4.996,3.78
				c2.44,0,3.681-1.836,4.996-3.78c1.403-2.074,2.854-4.22,5.824-4.22c2.971,0,4.422,2.146,5.825,4.22
				c1.315,1.944,2.557,3.78,4.998,3.78c2.441,0,3.684-1.836,4.999-3.78c1.404-2.074,2.855-4.22,5.827-4.22
				c2.971,0,4.422,2.146,5.826,4.22c1.315,1.944,2.557,3.78,4.998,3.78c2.442,0,3.686-1.836,5.001-3.78
				c1.404-2.074,2.856-4.22,5.829-4.22s4.425,2.146,5.829,4.22c1.316,1.944,2.559,3.78,5.001,3.78V44.914z"/>
			<path fill="#33CCCC" d="M227.254,35.935c-2.973,0-4.425-2.146-5.829-4.22c-1.316-1.944-2.559-3.78-5.001-3.78
				s-3.685,1.836-5.001,3.78c-1.404,2.074-2.856,4.22-5.83,4.22c-2.971,0-4.422-2.146-5.826-4.22
				c-1.315-1.944-2.557-3.78-4.998-3.78c-2.441,0-3.684,1.836-4.999,3.78c-1.404,2.074-2.855,4.22-5.827,4.22
				c-2.971,0-4.422-2.146-5.826-4.22c-1.315-1.944-2.557-3.78-4.997-3.78c-2.439,0-3.681,1.836-4.996,3.78
				c-1.403,2.074-2.854,4.22-5.824,4.22s-4.421-2.146-5.824-4.22c-1.315-1.944-2.556-3.78-4.996-3.78
				c-2.44,0-3.682,1.836-4.997,3.78c-1.403,2.074-2.854,4.22-5.825,4.22c-2.971,0-4.422-2.146-5.825-4.22
				c-1.315-1.944-2.557-3.78-4.997-3.78c-2.44,0-3.682,1.836-4.998,3.78c-1.403,2.074-2.854,4.22-5.826,4.22
				c-2.971,0-4.422-2.146-5.825-4.22c-1.315-1.944-2.557-3.78-4.997-3.78c-2.44,0-3.682,1.836-4.996,3.78
				c-1.403,2.074-2.854,4.22-5.824,4.22s-4.421-2.146-5.824-4.22c-1.315-1.944-2.557-3.78-4.996-3.78
				c-2.44,0-3.682,1.836-4.997,3.78c-1.403,2.074-2.854,4.22-5.825,4.22c-2.971,0-4.421-2.146-5.824-4.22
				c-1.315-1.944-2.556-3.78-4.996-3.78c-2.439,0-3.68,1.836-4.995,3.78c-1.403,2.074-2.853,4.22-5.823,4.22
				c-2.97,0-4.421-2.146-5.824-4.22c-1.315-1.944-2.556-3.78-4.996-3.78c-2.439,0-3.68,1.836-4.994,3.78
				c-1.403,2.074-2.853,4.22-5.823,4.22c-2.97,0-4.42-2.146-5.823-4.22c-1.314-1.944-2.556-3.78-4.995-3.78
				c-2.438,0-3.679,1.836-4.994,3.78c-1.402,2.074-2.853,4.22-5.822,4.22c-2.97,0-4.421-2.146-5.824-4.22
				C3.681,29.771,2.44,27.935,0,27.935v-1c2.971,0,4.421,2.146,5.824,4.22c1.315,1.944,2.556,3.78,4.996,3.78
				c2.438,0,3.679-1.836,4.994-3.78c1.402-2.074,2.853-4.22,5.822-4.22c2.97,0,4.42,2.146,5.823,4.22
				c1.314,1.944,2.556,3.78,4.995,3.78c2.439,0,3.68-1.836,4.994-3.78c1.403-2.074,2.853-4.22,5.823-4.22
				c2.97,0,4.421,2.146,5.824,4.22c1.315,1.944,2.556,3.78,4.996,3.78c2.439,0,3.68-1.836,4.994-3.78
				c1.403-2.074,2.853-4.22,5.823-4.22c2.971,0,4.421,2.146,5.824,4.22c1.315,1.944,2.556,3.78,4.996,3.78
				c2.44,0,3.682-1.836,4.997-3.78c1.403-2.074,2.854-4.22,5.825-4.22c2.971,0,4.421,2.146,5.824,4.22
				c1.315,1.944,2.556,3.78,4.996,3.78s3.681-1.836,4.996-3.78c1.403-2.074,2.854-4.22,5.825-4.22c2.971,0,4.422,2.146,5.825,4.22
				c1.315,1.944,2.557,3.78,4.997,3.78c2.44,0,3.683-1.836,4.998-3.78c1.403-2.074,2.854-4.22,5.826-4.22
				c2.971,0,4.422,2.146,5.825,4.22c1.315,1.944,2.557,3.78,4.997,3.78c2.44,0,3.682-1.836,4.997-3.78
				c1.403-2.074,2.854-4.22,5.825-4.22c2.97,0,4.421,2.146,5.824,4.22c1.314,1.944,2.556,3.78,4.996,3.78
				c2.44,0,3.681-1.836,4.996-3.78c1.403-2.074,2.854-4.22,5.824-4.22c2.971,0,4.422,2.146,5.825,4.22
				c1.315,1.944,2.557,3.78,4.998,3.78c2.441,0,3.684-1.836,4.999-3.78c1.404-2.074,2.855-4.22,5.827-4.22
				c2.971,0,4.422,2.146,5.826,4.22c1.315,1.944,2.557,3.78,4.998,3.78c2.442,0,3.686-1.836,5.001-3.78
				c1.404-2.074,2.856-4.22,5.829-4.22s4.425,2.146,5.829,4.22c1.316,1.944,2.559,3.78,5.001,3.78V35.935z"/>
			<path fill="#33CCCC" d="M227.254,26.957c-2.973,0-4.425-2.146-5.829-4.22c-1.316-1.944-2.559-3.78-5.001-3.78
				s-3.685,1.836-5.001,3.78c-1.404,2.074-2.856,4.22-5.83,4.22c-2.971,0-4.422-2.146-5.826-4.22
				c-1.315-1.944-2.557-3.78-4.998-3.78c-2.441,0-3.684,1.836-4.999,3.78c-1.404,2.074-2.855,4.22-5.827,4.22
				c-2.971,0-4.422-2.146-5.826-4.22c-1.315-1.944-2.557-3.78-4.997-3.78c-2.439,0-3.681,1.836-4.996,3.78
				c-1.403,2.074-2.854,4.22-5.824,4.22s-4.421-2.146-5.824-4.22c-1.315-1.944-2.556-3.78-4.996-3.78
				c-2.44,0-3.682,1.836-4.997,3.78c-1.403,2.074-2.854,4.22-5.825,4.22c-2.971,0-4.422-2.146-5.825-4.22
				c-1.315-1.944-2.557-3.78-4.997-3.78c-2.44,0-3.682,1.836-4.998,3.78c-1.403,2.074-2.854,4.22-5.826,4.22
				c-2.971,0-4.422-2.146-5.825-4.22c-1.315-1.944-2.557-3.78-4.997-3.78c-2.44,0-3.682,1.836-4.996,3.78
				c-1.403,2.074-2.854,4.22-5.824,4.22s-4.421-2.146-5.824-4.22c-1.315-1.944-2.557-3.78-4.996-3.78
				c-2.44,0-3.682,1.836-4.997,3.78c-1.403,2.074-2.854,4.22-5.825,4.22c-2.971,0-4.421-2.146-5.824-4.22
				c-1.315-1.944-2.556-3.78-4.996-3.78c-2.439,0-3.68,1.836-4.995,3.78c-1.403,2.074-2.853,4.22-5.823,4.22
				c-2.97,0-4.421-2.146-5.824-4.22c-1.315-1.944-2.556-3.78-4.996-3.78c-2.439,0-3.68,1.836-4.994,3.78
				c-1.403,2.074-2.853,4.22-5.823,4.22c-2.97,0-4.42-2.146-5.823-4.22c-1.314-1.944-2.556-3.78-4.995-3.78
				c-2.438,0-3.679,1.836-4.994,3.78c-1.402,2.074-2.853,4.22-5.822,4.22c-2.97,0-4.421-2.146-5.824-4.22
				C3.681,20.793,2.44,18.957,0,18.957v-1c2.971,0,4.421,2.146,5.824,4.22c1.315,1.944,2.556,3.78,4.996,3.78
				c2.438,0,3.679-1.836,4.994-3.78c1.402-2.074,2.853-4.22,5.822-4.22c2.97,0,4.42,2.146,5.823,4.22
				c1.314,1.944,2.556,3.78,4.995,3.78c2.439,0,3.68-1.836,4.994-3.78c1.403-2.074,2.853-4.22,5.823-4.22
				c2.97,0,4.421,2.146,5.824,4.22c1.315,1.944,2.556,3.78,4.996,3.78c2.439,0,3.68-1.836,4.994-3.78
				c1.403-2.074,2.853-4.22,5.823-4.22c2.971,0,4.421,2.146,5.824,4.22c1.315,1.944,2.556,3.78,4.996,3.78
				c2.44,0,3.682-1.836,4.997-3.78c1.403-2.074,2.854-4.22,5.825-4.22c2.971,0,4.421,2.146,5.824,4.22
				c1.315,1.944,2.556,3.78,4.996,3.78s3.681-1.836,4.996-3.78c1.403-2.074,2.854-4.22,5.825-4.22c2.971,0,4.422,2.146,5.825,4.22
				c1.315,1.944,2.557,3.78,4.997,3.78c2.44,0,3.683-1.836,4.998-3.78c1.403-2.074,2.854-4.22,5.826-4.22
				c2.971,0,4.422,2.146,5.825,4.22c1.315,1.944,2.557,3.78,4.997,3.78c2.44,0,3.682-1.836,4.997-3.78
				c1.403-2.074,2.854-4.22,5.825-4.22c2.97,0,4.421,2.146,5.824,4.22c1.314,1.944,2.556,3.78,4.996,3.78
				c2.44,0,3.681-1.836,4.996-3.78c1.403-2.074,2.854-4.22,5.824-4.22c2.971,0,4.422,2.146,5.825,4.22
				c1.315,1.944,2.557,3.78,4.998,3.78c2.441,0,3.684-1.836,4.999-3.78c1.404-2.074,2.855-4.22,5.827-4.22
				c2.971,0,4.422,2.146,5.826,4.22c1.315,1.944,2.557,3.78,4.998,3.78c2.442,0,3.686-1.836,5.001-3.78
				c1.404-2.074,2.856-4.22,5.829-4.22s4.425,2.146,5.829,4.22c1.316,1.944,2.559,3.78,5.001,3.78V26.957z"/>
			<path fill="#33CCCC" d="M227.254,17.978c-2.973,0-4.425-2.146-5.829-4.22c-1.316-1.944-2.559-3.78-5.001-3.78
				s-3.685,1.836-5.001,3.78c-1.404,2.074-2.856,4.22-5.83,4.22c-2.971,0-4.422-2.146-5.826-4.22
				c-1.315-1.944-2.557-3.78-4.998-3.78c-2.441,0-3.684,1.836-4.999,3.78c-1.404,2.074-2.855,4.22-5.827,4.22
				c-2.971,0-4.422-2.146-5.826-4.22c-1.315-1.944-2.557-3.78-4.997-3.78c-2.439,0-3.681,1.836-4.996,3.78
				c-1.403,2.074-2.854,4.22-5.824,4.22s-4.421-2.146-5.824-4.22c-1.315-1.944-2.556-3.78-4.996-3.78
				c-2.44,0-3.682,1.836-4.997,3.78c-1.403,2.074-2.854,4.22-5.825,4.22c-2.971,0-4.422-2.146-5.825-4.22
				c-1.315-1.944-2.557-3.78-4.997-3.78c-2.44,0-3.682,1.836-4.998,3.78c-1.403,2.074-2.854,4.22-5.826,4.22
				c-2.971,0-4.422-2.146-5.825-4.22c-1.315-1.944-2.557-3.78-4.997-3.78c-2.44,0-3.682,1.836-4.996,3.78
				c-1.403,2.074-2.854,4.22-5.824,4.22s-4.421-2.146-5.824-4.22c-1.315-1.944-2.557-3.78-4.996-3.78
				c-2.44,0-3.682,1.836-4.997,3.78c-1.403,2.074-2.854,4.22-5.825,4.22c-2.971,0-4.421-2.146-5.824-4.22
				c-1.315-1.944-2.556-3.78-4.996-3.78c-2.439,0-3.68,1.836-4.995,3.78c-1.403,2.074-2.853,4.22-5.823,4.22
				c-2.97,0-4.421-2.146-5.824-4.22c-1.315-1.944-2.556-3.78-4.996-3.78c-2.439,0-3.68,1.836-4.994,3.78
				c-1.403,2.074-2.853,4.22-5.823,4.22c-2.97,0-4.42-2.146-5.823-4.22c-1.314-1.944-2.556-3.78-4.995-3.78
				c-2.438,0-3.679,1.836-4.994,3.78c-1.402,2.074-2.853,4.22-5.822,4.22c-2.97,0-4.421-2.146-5.824-4.22
				C3.681,11.814,2.44,9.978,0,9.978v-1c2.971,0,4.421,2.146,5.824,4.22c1.315,1.944,2.556,3.78,4.996,3.78
				c2.438,0,3.679-1.836,4.994-3.78c1.402-2.074,2.853-4.22,5.822-4.22c2.97,0,4.42,2.146,5.823,4.22
				c1.314,1.944,2.556,3.78,4.995,3.78c2.439,0,3.68-1.836,4.994-3.78c1.403-2.074,2.853-4.22,5.823-4.22
				c2.97,0,4.421,2.146,5.824,4.22c1.315,1.944,2.556,3.78,4.996,3.78c2.439,0,3.68-1.836,4.994-3.78
				c1.403-2.074,2.853-4.22,5.823-4.22c2.971,0,4.421,2.146,5.824,4.22c1.315,1.944,2.556,3.78,4.996,3.78
				c2.44,0,3.682-1.836,4.997-3.78c1.403-2.074,2.854-4.22,5.825-4.22c2.971,0,4.421,2.146,5.824,4.22
				c1.315,1.944,2.556,3.78,4.996,3.78s3.681-1.836,4.996-3.78c1.403-2.074,2.854-4.22,5.825-4.22c2.971,0,4.422,2.146,5.825,4.22
				c1.315,1.944,2.557,3.78,4.997,3.78c2.44,0,3.683-1.836,4.998-3.78c1.403-2.074,2.854-4.22,5.826-4.22
				c2.971,0,4.422,2.146,5.825,4.22c1.315,1.944,2.557,3.78,4.997,3.78c2.44,0,3.682-1.836,4.997-3.78
				c1.403-2.074,2.854-4.22,5.825-4.22c2.97,0,4.421,2.146,5.824,4.22c1.314,1.944,2.556,3.78,4.996,3.78
				c2.44,0,3.681-1.836,4.996-3.78c1.403-2.074,2.854-4.22,5.824-4.22c2.971,0,4.422,2.146,5.825,4.22
				c1.315,1.944,2.557,3.78,4.998,3.78c2.441,0,3.684-1.836,4.999-3.78c1.404-2.074,2.855-4.22,5.827-4.22
				c2.971,0,4.422,2.146,5.826,4.22c1.315,1.944,2.557,3.78,4.998,3.78c2.442,0,3.686-1.836,5.001-3.78
				c1.404-2.074,2.856-4.22,5.829-4.22s4.425,2.146,5.829,4.22c1.316,1.944,2.559,3.78,5.001,3.78V17.978z"/>
			<path fill="#33CCCC" d="M227.254,9c-2.973,0-4.425-2.146-5.829-4.22C220.109,2.836,218.866,1,216.424,1s-3.685,1.836-5.001,3.78
				c-1.404,2.074-2.856,4.22-5.83,4.22c-2.971,0-4.422-2.146-5.826-4.22C198.452,2.836,197.21,1,194.77,1
				c-2.441,0-3.684,1.836-4.999,3.78C188.367,6.854,186.915,9,183.943,9c-2.971,0-4.422-2.146-5.826-4.22
				C176.802,2.836,175.56,1,173.12,1c-2.439,0-3.681,1.836-4.996,3.78C166.722,6.854,165.271,9,162.3,9s-4.421-2.146-5.824-4.22
				C155.161,2.836,153.92,1,151.48,1c-2.44,0-3.682,1.836-4.997,3.78C145.08,6.854,143.629,9,140.658,9
				c-2.971,0-4.422-2.146-5.825-4.22C133.518,2.836,132.276,1,129.836,1c-2.44,0-3.682,1.836-4.998,3.78
				C123.435,6.854,121.984,9,119.012,9c-2.971,0-4.422-2.146-5.825-4.22C111.872,2.836,110.63,1,108.191,1
				c-2.44,0-3.682,1.836-4.996,3.78C101.791,6.854,100.34,9,97.37,9s-4.421-2.146-5.824-4.22C90.231,2.836,88.989,1,86.55,1
				c-2.44,0-3.682,1.836-4.997,3.78C80.15,6.854,78.699,9,75.728,9c-2.971,0-4.421-2.146-5.824-4.22C68.589,2.836,67.347,1,64.907,1
				c-2.439,0-3.68,1.836-4.995,3.78C58.51,6.854,57.06,9,54.09,9c-2.97,0-4.421-2.146-5.824-4.22C46.951,2.836,45.71,1,43.27,1
				c-2.439,0-3.68,1.836-4.994,3.78C36.873,6.854,35.423,9,32.453,9c-2.97,0-4.42-2.146-5.823-4.22C25.316,2.836,24.074,1,21.636,1
				c-2.438,0-3.679,1.836-4.994,3.78C15.24,6.854,13.79,9,10.82,9C7.85,9,6.399,6.854,4.996,4.78C3.681,2.836,2.44,1,0,1V0
				c2.971,0,4.421,2.146,5.824,4.22C7.139,6.164,8.381,8,10.82,8c2.438,0,3.679-1.836,4.994-3.78C17.216,2.146,18.666,0,21.636,0
				c2.97,0,4.42,2.146,5.823,4.22C28.773,6.164,30.014,8,32.453,8c2.439,0,3.68-1.836,4.994-3.78C38.85,2.146,40.3,0,43.27,0
				c2.97,0,4.421,2.146,5.824,4.22C50.409,6.164,51.651,8,54.09,8c2.439,0,3.68-1.836,4.994-3.78C60.487,2.146,61.938,0,64.907,0
				c2.971,0,4.421,2.146,5.824,4.22C72.046,6.164,73.288,8,75.728,8c2.44,0,3.682-1.836,4.997-3.78C82.128,2.146,83.579,0,86.55,0
				c2.971,0,4.421,2.146,5.824,4.22C93.689,6.164,94.93,8,97.37,8s3.681-1.836,4.996-3.78C103.769,2.146,105.22,0,108.191,0
				c2.971,0,4.422,2.146,5.825,4.22C115.33,6.164,116.572,8,119.012,8c2.44,0,3.683-1.836,4.998-3.78
				c1.403-2.074,2.854-4.22,5.826-4.22c2.971,0,4.422,2.146,5.825,4.22c1.315,1.944,2.557,3.78,4.997,3.78
				c2.44,0,3.682-1.836,4.997-3.78C147.058,2.146,148.509,0,151.48,0c2.97,0,4.421,2.146,5.824,4.22
				C158.619,6.164,159.861,8,162.3,8c2.44,0,3.681-1.836,4.996-3.78C168.699,2.146,170.15,0,173.12,0
				c2.971,0,4.422,2.146,5.825,4.22c1.315,1.944,2.557,3.78,4.998,3.78c2.441,0,3.684-1.836,4.999-3.78
				C190.346,2.146,191.798,0,194.77,0c2.971,0,4.422,2.146,5.826,4.22c1.315,1.944,2.557,3.78,4.998,3.78
				c2.442,0,3.686-1.836,5.001-3.78c1.404-2.074,2.856-4.22,5.829-4.22s4.425,2.146,5.829,4.22c1.316,1.944,2.559,3.78,5.001,3.78V9
				z"/>
		</g>
	</g>
</g>
<g id="圖層_23" display="none">
</g>
<g id="圖層_22" display="none">
</g>
<g id="圖層_15" display="none">
</g>
<g id="圖層_17" display="none">
</g>
</svg>
