<?xml version="1.0" encoding="utf-8"?>
<!-- Generator: Adobe Illustrator 17.0.0, SVG Export Plug-In . SVG Version: 6.00 Build 0)  -->
<!DOCTYPE svg PUBLIC "-//W3C//DTD SVG 1.1//EN" "http://www.w3.org/Graphics/SVG/1.1/DTD/svg11.dtd">
<svg version="1.1" id="logosvg" xmlns="http://www.w3.org/2000/svg" xmlns:xlink="http://www.w3.org/1999/xlink" x="0px" y="0px"
	 width="123px" height="114.5px" viewBox="0 0 123 114.5" enable-background="new 0 0 123 114.5" xml:space="preserve">
<g>
	<g>
		<path fill="#FFFFFF" d="M11.783,59.198c-0.125-0.147-0.246-0.299-0.368-0.449C11.535,58.902,11.66,59.049,11.783,59.198z"/>
		<path fill="#FFFFFF" d="M84.994,51.423c-0.003-0.663-0.006-1.328-0.01-1.99L84.994,51.423z"/>
	</g>
	<path fill="#FFFFFF" d="M79.756,23.167c2.068-3.5,4.596-4.776,6.597-5.547c3.269-1.26,6.685-2.076,12.108,0.547
		c0,0,7.539,3.333,8.539,17.667V71.5h9V33.167c0,0,0.246-22.333-22.327-24.333c0,0-8.134-0.986-14.806,2.929
		C77.006,12.855,71.371,17,69.82,20L79.756,23.167z"/>
	<path fill="#FFFFFF" d="M58.891,39.987c0.998,12.791-10.536,23.711-23.327,23.776S12.438,53.476,12.373,40.685
		s10.35-23.25,23.141-23.315c4.953-0.025,9.587,1.511,13.373,4.147l4.585-6.682c-5.081-3.545-11.237-5.633-17.867-5.599
		c-17.239,0.088-31.188,14.122-31.1,31.36c0.088,17.239,14.365,30.577,31.604,30.488c17.238-0.088,29.601-10.809,30.598-28.769
		c0.143-2.58-0.154-6.41-0.167-8.814c0-6.319,4.377-6.298,4.377-6.298c4.104-0.022,5.876,2.744,5.893,5.967l0.204,38.347
		l7.982-0.036l-0.204-38.347c-0.039-7.679-6.158-13.948-12.913-13.913c0,0-9.995-0.687-12.822,11.286L58.891,39.987z"/>
</g>
<g>
	<g>
		<path fill="#FFFFFF" d="M34.176,93.278c-1.306-1.415-1.958-3.329-1.958-5.742c0-2.461,0.652-4.415,1.958-5.86
			c1.306-1.446,3.066-2.169,5.281-2.169c2.229,0,3.994,0.723,5.296,2.169c1.303,1.445,1.953,3.399,1.953,5.86
			c0,2.413-0.65,4.327-1.953,5.742c-1.302,1.415-3.067,2.123-5.296,2.123C37.242,95.401,35.481,94.693,34.176,93.278z
			 M42.472,91.345c0.725-0.919,1.087-2.196,1.087-3.83c0-1.668-0.362-2.974-1.087-3.917s-1.729-1.415-3.015-1.415
			c-1.278,0-2.28,0.472-3.005,1.415s-1.087,2.249-1.087,3.917c0,1.634,0.36,2.911,1.082,3.83c0.721,0.92,1.725,1.379,3.01,1.379
			S41.747,92.265,42.472,91.345z"/>
		<path fill="#FFFFFF" d="M58.107,94.991h-1.466h-1.477V79.917h2.307h2.308l2.745,11.946l2.71-11.946h2.276h2.276v15.073H68.32
			h-1.477V82.317h0.002l-2.821,12.674h-1.549h-1.548L58.11,82.04h-0.003V94.991z"/>
		<path fill="#FFFFFF" d="M81.691,94.991h-1.467h-1.477V79.917h1.651h1.65L88.1,90.5V79.917h1.467h1.477v15.073h-1.569h-1.568
			l-6.214-10.87V94.991z"/>
		<path fill="#FFFFFF" d="M99.901,79.917h1.568h1.579v15.073h-1.568h-1.579V79.917z"/>
	</g>
	<g>
		<path fill="#FFFFFF" d="M57.283,107.48c-0.836,0-1.499-0.27-1.99-0.809c-0.49-0.539-0.736-1.268-0.736-2.188
			c0-0.938,0.256-1.682,0.766-2.232c0.511-0.551,1.201-0.826,2.07-0.826c0.698,0,1.273,0.174,1.725,0.523
			c0.452,0.349,0.716,0.82,0.791,1.414h-1.199c-0.031-0.25-0.172-0.469-0.422-0.658c-0.251-0.189-0.527-0.283-0.829-0.283
			c-0.521,0-0.93,0.18-1.225,0.541c-0.294,0.361-0.441,0.861-0.441,1.502c0,0.651,0.142,1.146,0.424,1.486s0.696,0.51,1.24,0.51
			h-0.004c0.464,0,0.826-0.177,1.087-0.531c0.143-0.201,0.248-0.436,0.316-0.707v-0.012h-1.352v-0.988h2.404v3.098h-0.801
			l-0.117-0.742l-0.07,0.094c-0.403,0.539-0.95,0.809-1.641,0.809H57.283z"/>
		<path fill="#FFFFFF" d="M62.699,101.582h0.695h0.695l2.031,5.742h-0.636H64.85l-0.389-1.168h-2.178l-0.376,1.168H61.29h-0.622
			L62.699,101.582z M62.616,105.167h1.524l-0.763-2.309h0.001L62.616,105.167z"/>
		<path fill="#FFFFFF" d="M68.037,107.324h-0.559h-0.562v-5.742h0.879h0.879l1.046,4.551l1.032-4.551h0.867h0.867v5.742h-0.559
			h-0.562v-4.828h0.001l-1.075,4.828h-0.59h-0.59l-1.073-4.934h-0.001V107.324z"/>
		<path fill="#FFFFFF" d="M73.621,101.582h0.598h0.602v5.742h-0.598h-0.602V101.582z"/>
		<path fill="#FFFFFF" d="M77.084,107.324h-0.559h-0.562v-5.742h0.629h0.629l2.305,4.031v-4.031h0.559h0.562v5.742h-0.598h-0.598
			l-2.367-4.141V107.324z"/>
		<path fill="#FFFFFF" d="M84.348,107.48c-0.836,0-1.5-0.27-1.99-0.809c-0.491-0.539-0.736-1.268-0.736-2.188
			c0-0.938,0.255-1.682,0.766-2.232c0.51-0.551,1.2-0.826,2.07-0.826c0.697,0,1.272,0.174,1.725,0.523
			c0.451,0.349,0.715,0.82,0.791,1.414h-1.199c-0.031-0.25-0.172-0.469-0.423-0.658c-0.25-0.189-0.526-0.283-0.829-0.283
			c-0.521,0-0.929,0.18-1.224,0.541s-0.442,0.861-0.442,1.502c0,0.651,0.142,1.146,0.425,1.486c0.282,0.34,0.695,0.51,1.24,0.51
			h-0.004c0.464,0,0.826-0.177,1.086-0.531c0.144-0.201,0.249-0.436,0.316-0.707v-0.012h-1.352v-0.988h2.405v3.098h-0.801
			l-0.117-0.742l-0.07,0.094c-0.403,0.539-0.951,0.809-1.641,0.809H84.348z"/>
	</g>
</g>
<path fill="#FFFFFF" d="M86.667,29.333c1.01,3.336,0.666,7.352,0.678,10.847c0.037,10.296,0.013,20.32,0.013,31.32
	c2.742,0,5.946,0,8.541,0c0-10,0.031-19.82-0.009-29.457c-0.036-8.565,0.692-18.409-6.723-25.71
	c-6.083-6.208-11.959-6.601-11.959-6.601c-15.206-3.114-28.087,7.256-28.256,22.825c-0.029,2.666,0.116,5.341-0.068,7.995
	c-0.435,6.286-4.998,11.151-11.263,12.214c-5.598,0.95-11.387-2.242-13.841-7.63c-2.425-5.327-0.964-11.568,3.602-15.38
	c4.561-3.808,11.182-3.996,16.203-0.459c0.899,0.634,1.792,1.276,2.864,2.039c0.457-2.997,0.853-5.594,1.241-8.141
	c-8.173-6.065-18.727-5.436-26.059,1.486c-7.155,6.755-8.661,17.895-3.522,26.058c4.812,7.643,13.438,11.218,22.501,9.324
	c8.057-1.683,14.745-9.248,15.633-18.015c0.419-4.132,0.079-8.351,0.621-12.459c1.041-7.891,7.959-13.208,15.324-12.565
	C72.188,17.023,82.833,16.667,86.667,29.333z"/>
</svg>
